<?xml version="1.0" encoding="UTF-8"?>
<svg xmlns="http://www.w3.org/2000/svg" xmlns:xlink="http://www.w3.org/1999/xlink"
     width="600" height="600" viewBox="0 -600 600 600">
<defs>
</defs>
<rect x="0.0" y="-600.0" width="600.0" height="600.0" fill="#f2b06d" />
<path d="M17.0,-17.0 L583.0,-17.0" stroke="#101010" stroke-width="1" />
<path d="M17.0,-48.44444444444444 L583.0,-48.44444444444444" stroke="#101010" stroke-width="1" />
<path d="M17.0,-79.88888888888889 L583.0,-79.88888888888889" stroke="#101010" stroke-width="1" />
<path d="M17.0,-111.33333333333333 L583.0,-111.33333333333333" stroke="#101010" stroke-width="1" />
<path d="M17.0,-142.77777777777777 L583.0,-142.77777777777777" stroke="#101010" stroke-width="1" />
<path d="M17.0,-174.22222222222223 L583.0,-174.22222222222223" stroke="#101010" stroke-width="1" />
<path d="M17.0,-205.66666666666666 L583.0,-205.66666666666666" stroke="#101010" stroke-width="1" />
<path d="M17.0,-237.11111111111111 L583.0,-237.11111111111111" stroke="#101010" stroke-width="1" />
<path d="M17.0,-268.55555555555554 L583.0,-268.55555555555554" stroke="#101010" stroke-width="1" />
<path d="M17.0,-300.0 L583.0,-300.0" stroke="#101010" stroke-width="1" />
<path d="M17.0,-331.44444444444446 L583.0,-331.44444444444446" stroke="#101010" stroke-width="1" />
<path d="M17.0,-362.8888888888889 L583.0,-362.8888888888889" stroke="#101010" stroke-width="1" />
<path d="M17.0,-394.3333333333333 L583.0,-394.3333333333333" stroke="#101010" stroke-width="1" />
<path d="M17.0,-425.77777777777777 L583.0,-425.77777777777777" stroke="#101010" stroke-width="1" />
<path d="M17.0,-457.22222222222223 L583.0,-457.22222222222223" stroke="#101010" stroke-width="1" />
<path d="M17.0,-488.6666666666667 L583.0,-488.6666666666667" stroke="#101010" stroke-width="1" />
<path d="M17.0,-520.1111111111111 L583.0,-520.1111111111111" stroke="#101010" stroke-width="1" />
<path d="M17.0,-551.5555555555555 L583.0,-551.5555555555555" stroke="#101010" stroke-width="1" />
<path d="M17.0,-583.0 L583.0,-583.0" stroke="#101010" stroke-width="1" />
<path d="M17.0,-17.0 L17.0,-583.0" stroke="#101010" stroke-width="1" />
<path d="M48.44444444444444,-17.0 L48.44444444444444,-583.0" stroke="#101010" stroke-width="1" />
<path d="M79.88888888888889,-17.0 L79.88888888888889,-583.0" stroke="#101010" stroke-width="1" />
<path d="M111.33333333333333,-17.0 L111.33333333333333,-583.0" stroke="#101010" stroke-width="1" />
<path d="M142.77777777777777,-17.0 L142.77777777777777,-583.0" stroke="#101010" stroke-width="1" />
<path d="M174.22222222222223,-17.0 L174.22222222222223,-583.0" stroke="#101010" stroke-width="1" />
<path d="M205.66666666666666,-17.0 L205.66666666666666,-583.0" stroke="#101010" stroke-width="1" />
<path d="M237.11111111111111,-17.0 L237.11111111111111,-583.0" stroke="#101010" stroke-width="1" />
<path d="M268.55555555555554,-17.0 L268.55555555555554,-583.0" stroke="#101010" stroke-width="1" />
<path d="M300.0,-17.0 L300.0,-583.0" stroke="#101010" stroke-width="1" />
<path d="M331.44444444444446,-17.0 L331.44444444444446,-583.0" stroke="#101010" stroke-width="1" />
<path d="M362.8888888888889,-17.0 L362.8888888888889,-583.0" stroke="#101010" stroke-width="1" />
<path d="M394.3333333333333,-17.0 L394.3333333333333,-583.0" stroke="#101010" stroke-width="1" />
<path d="M425.77777777777777,-17.0 L425.77777777777777,-583.0" stroke="#101010" stroke-width="1" />
<path d="M457.22222222222223,-17.0 L457.22222222222223,-583.0" stroke="#101010" stroke-width="1" />
<path d="M488.6666666666667,-17.0 L488.6666666666667,-583.0" stroke="#101010" stroke-width="1" />
<path d="M520.1111111111111,-17.0 L520.1111111111111,-583.0" stroke="#101010" stroke-width="1" />
<path d="M551.5555555555555,-17.0 L551.5555555555555,-583.0" stroke="#101010" stroke-width="1" />
<path d="M583.0,-17.0 L583.0,-583.0" stroke="#101010" stroke-width="1" />
<rect x="108.83333333333333" y="-113.83333333333333" width="5.0" height="5.0" fill="#000000" />
<rect x="297.5" y="-113.83333333333333" width="5.0" height="5.0" fill="#000000" />
<rect x="486.1666666666667" y="-113.83333333333333" width="5.0" height="5.0" fill="#000000" />
<rect x="108.83333333333333" y="-302.5" width="5.0" height="5.0" fill="#000000" />
<rect x="297.5" y="-302.5" width="5.0" height="5.0" fill="#000000" />
<rect x="486.1666666666667" y="-302.5" width="5.0" height="5.0" fill="#000000" />
<rect x="108.83333333333333" y="-491.1666666666667" width="5.0" height="5.0" fill="#000000" />
<rect x="297.5" y="-491.1666666666667" width="5.0" height="5.0" fill="#000000" />
<rect x="486.1666666666667" y="-491.1666666666667" width="5.0" height="5.0" fill="#000000" />
<circle cx="520.1111111111111" cy="-488.6666666666667" r="13.0" stroke="black" stroke-width="1.3" fill="#000000" />
<circle cx="111.33333333333333" cy="-520.1111111111111" r="13.0" stroke="black" stroke-width="1.3" fill="#FFFFFF" />
<circle cx="488.6666666666667" cy="-79.88888888888889" r="13.0" stroke="black" stroke-width="1.3" fill="#000000" />
<circle cx="457.22222222222223" cy="-520.1111111111111" r="13.0" stroke="black" stroke-width="1.3" fill="#FFFFFF" />
<circle cx="79.88888888888889" cy="-111.33333333333333" r="13.0" stroke="black" stroke-width="1.3" fill="#000000" />
<circle cx="79.88888888888889" cy="-425.77777777777777" r="13.0" stroke="black" stroke-width="1.3" fill="#FFFFFF" />
<circle cx="142.77777777777777" cy="-111.33333333333333" r="13.0" stroke="black" stroke-width="1.3" fill="#000000" />
<circle cx="520.1111111111111" cy="-142.77777777777777" r="13.0" stroke="black" stroke-width="1.3" fill="#FFFFFF" />
<circle cx="488.6666666666667" cy="-457.22222222222223" r="13.0" stroke="black" stroke-width="1.3" fill="#000000" />
<circle cx="425.77777777777777" cy="-111.33333333333333" r="13.0" stroke="black" stroke-width="1.3" fill="#FFFFFF" />
<circle cx="488.6666666666667" cy="-142.77777777777777" r="13.0" stroke="black" stroke-width="1.3" fill="#000000" />
<circle cx="488.6666666666667" cy="-111.33333333333333" r="13.0" stroke="black" stroke-width="1.3" fill="#FFFFFF" />
<circle cx="457.22222222222223" cy="-111.33333333333333" r="13.0" stroke="black" stroke-width="1.3" fill="#000000" />
<circle cx="520.1111111111111" cy="-111.33333333333333" r="13.0" stroke="black" stroke-width="1.3" fill="#FFFFFF" />
<circle cx="457.22222222222223" cy="-79.88888888888889" r="13.0" stroke="black" stroke-width="1.3" fill="#000000" />
<circle cx="457.22222222222223" cy="-142.77777777777777" r="13.0" stroke="black" stroke-width="1.3" fill="#FFFFFF" />
<circle cx="488.6666666666667" cy="-174.22222222222223" r="13.0" stroke="black" stroke-width="1.3" fill="#000000" />
<circle cx="520.1111111111111" cy="-79.88888888888889" r="13.0" stroke="black" stroke-width="1.3" fill="#FFFFFF" />
<circle cx="425.77777777777777" cy="-79.88888888888889" r="13.0" stroke="black" stroke-width="1.3" fill="#000000" />
<circle cx="457.22222222222223" cy="-174.22222222222223" r="13.0" stroke="black" stroke-width="1.3" fill="#FFFFFF" />
<circle cx="488.6666666666667" cy="-205.66666666666666" r="13.0" stroke="black" stroke-width="1.3" fill="#000000" />
<circle cx="457.22222222222223" cy="-205.66666666666666" r="13.0" stroke="black" stroke-width="1.3" fill="#FFFFFF" />
<circle cx="488.6666666666667" cy="-237.11111111111111" r="13.0" stroke="black" stroke-width="1.3" fill="#000000" />
<circle cx="394.3333333333333" cy="-111.33333333333333" r="13.0" stroke="black" stroke-width="1.3" fill="#FFFFFF" />
<circle cx="394.3333333333333" cy="-79.88888888888889" r="13.0" stroke="black" stroke-width="1.3" fill="#000000" />
<circle cx="457.22222222222223" cy="-237.11111111111111" r="13.0" stroke="black" stroke-width="1.3" fill="#FFFFFF" />
<circle cx="488.6666666666667" cy="-268.55555555555554" r="13.0" stroke="black" stroke-width="1.3" fill="#000000" />
<circle cx="362.8888888888889" cy="-79.88888888888889" r="13.0" stroke="black" stroke-width="1.3" fill="#FFFFFF" />
<circle cx="362.8888888888889" cy="-48.44444444444444" r="13.0" stroke="black" stroke-width="1.3" fill="#000000" />
<circle cx="331.44444444444446" cy="-48.44444444444444" r="13.0" stroke="black" stroke-width="1.3" fill="#FFFFFF" />
<circle cx="362.8888888888889" cy="-111.33333333333333" r="13.0" stroke="black" stroke-width="1.3" fill="#000000" />
<circle cx="331.44444444444446" cy="-79.88888888888889" r="13.0" stroke="black" stroke-width="1.3" fill="#FFFFFF" />
<circle cx="520.1111111111111" cy="-48.44444444444444" r="13.0" stroke="black" stroke-width="1.3" fill="#000000" />
<circle cx="551.5555555555555" cy="-48.44444444444444" r="13.0" stroke="black" stroke-width="1.3" fill="#FFFFFF" />
<circle cx="551.5555555555555" cy="-17.0" r="13.0" stroke="black" stroke-width="1.3" fill="#000000" />
<circle cx="394.3333333333333" cy="-48.44444444444444" r="13.0" stroke="black" stroke-width="1.3" fill="#FFFFFF" />
<circle cx="425.77777777777777" cy="-48.44444444444444" r="13.0" stroke="black" stroke-width="1.3" fill="#000000" />
<circle cx="488.6666666666667" cy="-48.44444444444444" r="13.0" stroke="black" stroke-width="1.3" fill="#FFFFFF" />
<circle cx="488.6666666666667" cy="-17.0" r="13.0" stroke="black" stroke-width="1.3" fill="#000000" />
<circle cx="520.1111111111111" cy="-17.0" r="13.0" stroke="black" stroke-width="1.3" fill="#FFFFFF" />
<circle cx="425.77777777777777" cy="-142.77777777777777" r="13.0" stroke="black" stroke-width="1.3" fill="#000000" />
<circle cx="394.3333333333333" cy="-142.77777777777777" r="13.0" stroke="black" stroke-width="1.3" fill="#FFFFFF" />
<circle cx="520.1111111111111" cy="-48.44444444444444" r="13.0" stroke="black" stroke-width="1.3" fill="#000000" />
<circle cx="551.5555555555555" cy="-205.66666666666666" r="13.0" stroke="black" stroke-width="1.3" fill="#FFFFFF" />
<circle cx="551.5555555555555" cy="-237.11111111111111" r="13.0" stroke="black" stroke-width="1.3" fill="#000000" />
<circle cx="520.1111111111111" cy="-17.0" r="13.0" stroke="black" stroke-width="1.3" fill="#FFFFFF" />
<circle cx="362.8888888888889" cy="-142.77777777777777" r="13.0" stroke="black" stroke-width="1.3" fill="#000000" />
<circle cx="394.3333333333333" cy="-174.22222222222223" r="13.0" stroke="black" stroke-width="1.3" fill="#FFFFFF" />
<circle cx="520.1111111111111" cy="-48.44444444444444" r="13.0" stroke="black" stroke-width="1.3" fill="#000000" />
<circle cx="520.1111111111111" cy="-205.66666666666666" r="13.0" stroke="black" stroke-width="1.3" fill="#FFFFFF" />
<circle cx="457.22222222222223" cy="-48.44444444444444" r="13.0" stroke="black" stroke-width="1.3" fill="#000000" />
<circle cx="520.1111111111111" cy="-237.11111111111111" r="13.0" stroke="black" stroke-width="1.3" fill="#FFFFFF" />
<circle cx="520.1111111111111" cy="-300.0" r="13.0" stroke="black" stroke-width="1.3" fill="#000000" />
<circle cx="551.5555555555555" cy="-300.0" r="13.0" stroke="black" stroke-width="1.3" fill="#FFFFFF" />
<circle cx="551.5555555555555" cy="-331.44444444444446" r="13.0" stroke="black" stroke-width="1.3" fill="#000000" />
<circle cx="551.5555555555555" cy="-268.55555555555554" r="13.0" stroke="black" stroke-width="1.3" fill="#FFFFFF" />
<circle cx="362.8888888888889" cy="-174.22222222222223" r="13.0" stroke="black" stroke-width="1.3" fill="#000000" />
<circle cx="394.3333333333333" cy="-205.66666666666666" r="13.0" stroke="black" stroke-width="1.3" fill="#FFFFFF" />
<circle cx="520.1111111111111" cy="-331.44444444444446" r="13.0" stroke="black" stroke-width="1.3" fill="#000000" />
<circle cx="551.5555555555555" cy="-79.88888888888889" r="13.0" stroke="black" stroke-width="1.3" fill="#FFFFFF" />
<circle cx="300.0" cy="-174.22222222222223" r="13.0" stroke="black" stroke-width="1.3" fill="#000000" />
<circle cx="362.8888888888889" cy="-17.0" r="13.0" stroke="black" stroke-width="1.3" fill="#FFFFFF" />
<circle cx="425.77777777777777" cy="-17.0" r="13.0" stroke="black" stroke-width="1.3" fill="#000000" />
<circle cx="205.66666666666666" cy="-79.88888888888889" r="13.0" stroke="black" stroke-width="1.3" fill="#FFFFFF" />
<circle cx="205.66666666666666" cy="-142.77777777777777" r="13.0" stroke="black" stroke-width="1.3" fill="#000000" />
<circle cx="79.88888888888889" cy="-268.55555555555554" r="13.0" stroke="black" stroke-width="1.3" fill="#FFFFFF" />
<circle cx="331.44444444444446" cy="-520.1111111111111" r="13.0" stroke="black" stroke-width="1.3" fill="#000000" />
<circle cx="268.55555555555554" cy="-520.1111111111111" r="13.0" stroke="black" stroke-width="1.3" fill="#FFFFFF" />
<circle cx="488.6666666666667" cy="-520.1111111111111" r="13.0" stroke="black" stroke-width="1.3" fill="#000000" />
<circle cx="425.77777777777777" cy="-300.0" r="13.0" stroke="black" stroke-width="1.3" fill="#FFFFFF" />
<circle cx="331.44444444444446" cy="-457.22222222222223" r="13.0" stroke="black" stroke-width="1.3" fill="#000000" />
<circle cx="457.22222222222223" cy="-394.3333333333333" r="13.0" stroke="black" stroke-width="1.3" fill="#FFFFFF" />
<circle cx="457.22222222222223" cy="-362.8888888888889" r="13.0" stroke="black" stroke-width="1.3" fill="#000000" />
<circle cx="488.6666666666667" cy="-551.5555555555555" r="13.0" stroke="black" stroke-width="1.3" fill="#FFFFFF" />
<circle cx="520.1111111111111" cy="-551.5555555555555" r="13.0" stroke="black" stroke-width="1.3" fill="#000000" />
<circle cx="425.77777777777777" cy="-394.3333333333333" r="13.0" stroke="black" stroke-width="1.3" fill="#FFFFFF" />
<circle cx="394.3333333333333" cy="-331.44444444444446" r="13.0" stroke="black" stroke-width="1.3" fill="#000000" />
<circle cx="394.3333333333333" cy="-300.0" r="13.0" stroke="black" stroke-width="1.3" fill="#FFFFFF" />
<circle cx="425.77777777777777" cy="-488.6666666666667" r="13.0" stroke="black" stroke-width="1.3" fill="#000000" />
<circle cx="488.6666666666667" cy="-362.8888888888889" r="13.0" stroke="black" stroke-width="1.3" fill="#FFFFFF" />
<circle cx="520.1111111111111" cy="-394.3333333333333" r="13.0" stroke="black" stroke-width="1.3" fill="#000000" />
<circle cx="488.6666666666667" cy="-394.3333333333333" r="13.0" stroke="black" stroke-width="1.3" fill="#FFFFFF" />
<circle cx="237.11111111111111" cy="-79.88888888888889" r="13.0" stroke="black" stroke-width="1.3" fill="#000000" />
<circle cx="237.11111111111111" cy="-48.44444444444444" r="13.0" stroke="black" stroke-width="1.3" fill="#FFFFFF" />
<circle cx="268.55555555555554" cy="-48.44444444444444" r="13.0" stroke="black" stroke-width="1.3" fill="#000000" />
<circle cx="268.55555555555554" cy="-79.88888888888889" r="13.0" stroke="black" stroke-width="1.3" fill="#FFFFFF" />
<circle cx="237.11111111111111" cy="-111.33333333333333" r="13.0" stroke="black" stroke-width="1.3" fill="#000000" />
<circle cx="300.0" cy="-48.44444444444444" r="13.0" stroke="black" stroke-width="1.3" fill="#FFFFFF" />
<circle cx="174.22222222222223" cy="-520.1111111111111" r="13.0" stroke="black" stroke-width="1.3" fill="#000000" />
<circle cx="362.8888888888889" cy="-520.1111111111111" r="13.0" stroke="black" stroke-width="1.3" fill="#FFFFFF" />
<circle cx="362.8888888888889" cy="-488.6666666666667" r="13.0" stroke="black" stroke-width="1.3" fill="#000000" />
<circle cx="394.3333333333333" cy="-520.1111111111111" r="13.0" stroke="black" stroke-width="1.3" fill="#FFFFFF" />
<circle cx="362.8888888888889" cy="-551.5555555555555" r="13.0" stroke="black" stroke-width="1.3" fill="#000000" />
<circle cx="394.3333333333333" cy="-551.5555555555555" r="13.0" stroke="black" stroke-width="1.3" fill="#FFFFFF" />
<circle cx="394.3333333333333" cy="-488.6666666666667" r="13.0" stroke="black" stroke-width="1.3" fill="#000000" />
<circle cx="520.1111111111111" cy="-425.77777777777777" r="13.0" stroke="black" stroke-width="1.3" fill="#FFFFFF" />
<circle cx="488.6666666666667" cy="-425.77777777777777" r="13.0" stroke="black" stroke-width="1.3" fill="#000000" />
<circle cx="520.1111111111111" cy="-362.8888888888889" r="13.0" stroke="black" stroke-width="1.3" fill="#FFFFFF" />
<circle cx="551.5555555555555" cy="-394.3333333333333" r="13.0" stroke="black" stroke-width="1.3" fill="#000000" />
<circle cx="551.5555555555555" cy="-362.8888888888889" r="13.0" stroke="black" stroke-width="1.3" fill="#FFFFFF" />
<circle cx="583.0" cy="-362.8888888888889" r="13.0" stroke="black" stroke-width="1.3" fill="#000000" />
<circle cx="551.5555555555555" cy="-425.77777777777777" r="13.0" stroke="black" stroke-width="1.3" fill="#FFFFFF" />
<circle cx="583.0" cy="-394.3333333333333" r="13.0" stroke="black" stroke-width="1.3" fill="#000000" />
<circle cx="488.6666666666667" cy="-300.0" r="13.0" stroke="black" stroke-width="1.3" fill="#FFFFFF" />
<circle cx="488.6666666666667" cy="-331.44444444444446" r="13.0" stroke="black" stroke-width="1.3" fill="#000000" />
<circle cx="457.22222222222223" cy="-331.44444444444446" r="13.0" stroke="black" stroke-width="1.3" fill="#FFFFFF" />
<circle cx="457.22222222222223" cy="-300.0" r="13.0" stroke="black" stroke-width="1.3" fill="#000000" />
<circle cx="425.77777777777777" cy="-331.44444444444446" r="13.0" stroke="black" stroke-width="1.3" fill="#FFFFFF" />
<circle cx="520.1111111111111" cy="-268.55555555555554" r="13.0" stroke="black" stroke-width="1.3" fill="#000000" />
<circle cx="457.22222222222223" cy="-268.55555555555554" r="13.0" stroke="black" stroke-width="1.3" fill="#FFFFFF" />
<circle cx="520.1111111111111" cy="-457.22222222222223" r="13.0" stroke="black" stroke-width="1.3" fill="#000000" />
<circle cx="331.44444444444446" cy="-551.5555555555555" r="13.0" stroke="black" stroke-width="1.3" fill="#FFFFFF" />
<circle cx="300.0" cy="-551.5555555555555" r="13.0" stroke="black" stroke-width="1.3" fill="#000000" />
<circle cx="331.44444444444446" cy="-583.0" r="13.0" stroke="black" stroke-width="1.3" fill="#FFFFFF" />
<circle cx="300.0" cy="-520.1111111111111" r="13.0" stroke="black" stroke-width="1.3" fill="#000000" />
<circle cx="457.22222222222223" cy="-551.5555555555555" r="13.0" stroke="black" stroke-width="1.3" fill="#FFFFFF" />
<circle cx="300.0" cy="-583.0" r="13.0" stroke="black" stroke-width="1.3" fill="#000000" />
<circle cx="362.8888888888889" cy="-583.0" r="13.0" stroke="black" stroke-width="1.3" fill="#FFFFFF" />
<circle cx="111.33333333333333" cy="-551.5555555555555" r="13.0" stroke="black" stroke-width="1.3" fill="#000000" />
<circle cx="79.88888888888889" cy="-520.1111111111111" r="13.0" stroke="black" stroke-width="1.3" fill="#FFFFFF" />
<circle cx="174.22222222222223" cy="-457.22222222222223" r="13.0" stroke="black" stroke-width="1.3" fill="#000000" />
<circle cx="79.88888888888889" cy="-174.22222222222223" r="13.0" stroke="black" stroke-width="1.3" fill="#FFFFFF" />
<circle cx="205.66666666666666" cy="-48.44444444444444" r="13.0" stroke="black" stroke-width="1.3" fill="#000000" />
<circle cx="268.55555555555554" cy="-17.0" r="13.0" stroke="black" stroke-width="1.3" fill="#FFFFFF" />
<circle cx="174.22222222222223" cy="-79.88888888888889" r="13.0" stroke="black" stroke-width="1.3" fill="#000000" />
<circle cx="268.55555555555554" cy="-142.77777777777777" r="13.0" stroke="black" stroke-width="1.3" fill="#FFFFFF" />
<circle cx="300.0" cy="-331.44444444444446" r="13.0" stroke="black" stroke-width="1.3" fill="#000000" />
<circle cx="300.0" cy="-331.44444444444446" r="9.0" stroke-width="2" stroke="#EEEEEE" />
</svg>