<?xml version="1.0" encoding="UTF-8"?>
<svg xmlns="http://www.w3.org/2000/svg" xmlns:xlink="http://www.w3.org/1999/xlink"
     width="550" height="550" viewBox="0 -550 550 550">
<defs>
</defs>
<rect x="0.0" y="-550.0" width="550.0" height="550.0" fill="#f2b06d" />
<path d="M34.0,-516.0 L516.0,-516.0" stroke="#101010" stroke-width="1" />
<path d="M34.0,-489.22222222222223 L516.0,-489.22222222222223" stroke="#101010" stroke-width="1" />
<path d="M34.0,-462.44444444444446 L516.0,-462.44444444444446" stroke="#101010" stroke-width="1" />
<path d="M34.0,-435.6666666666667 L516.0,-435.6666666666667" stroke="#101010" stroke-width="1" />
<path d="M34.0,-408.8888888888889 L516.0,-408.8888888888889" stroke="#101010" stroke-width="1" />
<path d="M34.0,-382.1111111111111 L516.0,-382.1111111111111" stroke="#101010" stroke-width="1" />
<path d="M34.0,-355.33333333333337 L516.0,-355.33333333333337" stroke="#101010" stroke-width="1" />
<path d="M34.0,-328.55555555555554 L516.0,-328.55555555555554" stroke="#101010" stroke-width="1" />
<path d="M34.0,-301.77777777777777 L516.0,-301.77777777777777" stroke="#101010" stroke-width="1" />
<path d="M34.0,-275.0 L516.0,-275.0" stroke="#101010" stroke-width="1" />
<path d="M34.0,-248.22222222222223 L516.0,-248.22222222222223" stroke="#101010" stroke-width="1" />
<path d="M34.0,-221.44444444444446 L516.0,-221.44444444444446" stroke="#101010" stroke-width="1" />
<path d="M34.0,-194.66666666666669 L516.0,-194.66666666666669" stroke="#101010" stroke-width="1" />
<path d="M34.0,-167.8888888888889 L516.0,-167.8888888888889" stroke="#101010" stroke-width="1" />
<path d="M34.0,-141.1111111111111 L516.0,-141.1111111111111" stroke="#101010" stroke-width="1" />
<path d="M34.0,-114.33333333333331 L516.0,-114.33333333333331" stroke="#101010" stroke-width="1" />
<path d="M34.0,-87.55555555555554 L516.0,-87.55555555555554" stroke="#101010" stroke-width="1" />
<path d="M34.0,-60.77777777777777 L516.0,-60.77777777777777" stroke="#101010" stroke-width="1" />
<path d="M34.0,-34.0 L516.0,-34.0" stroke="#101010" stroke-width="1" />
<path d="M34.0,-516.0 L34.0,-34.0" stroke="#101010" stroke-width="1" />
<path d="M60.77777777777778,-516.0 L60.77777777777778,-34.0" stroke="#101010" stroke-width="1" />
<path d="M87.55555555555556,-516.0 L87.55555555555556,-34.0" stroke="#101010" stroke-width="1" />
<path d="M114.33333333333333,-516.0 L114.33333333333333,-34.0" stroke="#101010" stroke-width="1" />
<path d="M141.11111111111111,-516.0 L141.11111111111111,-34.0" stroke="#101010" stroke-width="1" />
<path d="M167.88888888888889,-516.0 L167.88888888888889,-34.0" stroke="#101010" stroke-width="1" />
<path d="M194.66666666666666,-516.0 L194.66666666666666,-34.0" stroke="#101010" stroke-width="1" />
<path d="M221.44444444444446,-516.0 L221.44444444444446,-34.0" stroke="#101010" stroke-width="1" />
<path d="M248.22222222222223,-516.0 L248.22222222222223,-34.0" stroke="#101010" stroke-width="1" />
<path d="M275.0,-516.0 L275.0,-34.0" stroke="#101010" stroke-width="1" />
<path d="M301.77777777777777,-516.0 L301.77777777777777,-34.0" stroke="#101010" stroke-width="1" />
<path d="M328.55555555555554,-516.0 L328.55555555555554,-34.0" stroke="#101010" stroke-width="1" />
<path d="M355.3333333333333,-516.0 L355.3333333333333,-34.0" stroke="#101010" stroke-width="1" />
<path d="M382.1111111111111,-516.0 L382.1111111111111,-34.0" stroke="#101010" stroke-width="1" />
<path d="M408.8888888888889,-516.0 L408.8888888888889,-34.0" stroke="#101010" stroke-width="1" />
<path d="M435.6666666666667,-516.0 L435.6666666666667,-34.0" stroke="#101010" stroke-width="1" />
<path d="M462.44444444444446,-516.0 L462.44444444444446,-34.0" stroke="#101010" stroke-width="1" />
<path d="M489.22222222222223,-516.0 L489.22222222222223,-34.0" stroke="#101010" stroke-width="1" />
<path d="M516.0,-516.0 L516.0,-34.0" stroke="#101010" stroke-width="1" />
<rect x="111.83333333333333" y="-438.1666666666667" width="5.0" height="5.0" fill="#000000" />
<rect x="433.1666666666667" y="-438.1666666666667" width="5.0" height="5.0" fill="#000000" />
<rect x="272.5" y="-438.1666666666667" width="5.0" height="5.0" fill="#000000" />
<rect x="111.83333333333333" y="-116.83333333333331" width="5.0" height="5.0" fill="#000000" />
<rect x="433.1666666666667" y="-116.83333333333331" width="5.0" height="5.0" fill="#000000" />
<rect x="272.5" y="-116.83333333333331" width="5.0" height="5.0" fill="#000000" />
<rect x="111.83333333333333" y="-277.5" width="5.0" height="5.0" fill="#000000" />
<rect x="433.1666666666667" y="-277.5" width="5.0" height="5.0" fill="#000000" />
<rect x="272.5" y="-277.5" width="5.0" height="5.0" fill="#000000" />
<text x="16.0" y="-519.0" font-size="15.0" fill="#000000" text-anchor="middle" transform="translate(0,7.5)">19</text>
<text x="16.0" y="-492.22222222222223" font-size="15.0" fill="#000000" text-anchor="middle" transform="translate(0,7.5)">18</text>
<text x="16.0" y="-465.44444444444446" font-size="15.0" fill="#000000" text-anchor="middle" transform="translate(0,7.5)">17</text>
<text x="16.0" y="-438.6666666666667" font-size="15.0" fill="#000000" text-anchor="middle" transform="translate(0,7.5)">16</text>
<text x="16.0" y="-411.8888888888889" font-size="15.0" fill="#000000" text-anchor="middle" transform="translate(0,7.5)">15</text>
<text x="16.0" y="-385.1111111111111" font-size="15.0" fill="#000000" text-anchor="middle" transform="translate(0,7.5)">14</text>
<text x="16.0" y="-358.33333333333337" font-size="15.0" fill="#000000" text-anchor="middle" transform="translate(0,7.5)">13</text>
<text x="16.0" y="-331.55555555555554" font-size="15.0" fill="#000000" text-anchor="middle" transform="translate(0,7.5)">12</text>
<text x="16.0" y="-304.77777777777777" font-size="15.0" fill="#000000" text-anchor="middle" transform="translate(0,7.5)">11</text>
<text x="16.0" y="-278.0" font-size="15.0" fill="#000000" text-anchor="middle" transform="translate(0,7.5)">10</text>
<text x="16.0" y="-251.22222222222223" font-size="15.0" fill="#000000" text-anchor="middle" transform="translate(0,7.5)">9</text>
<text x="16.0" y="-224.44444444444446" font-size="15.0" fill="#000000" text-anchor="middle" transform="translate(0,7.5)">8</text>
<text x="16.0" y="-197.66666666666669" font-size="15.0" fill="#000000" text-anchor="middle" transform="translate(0,7.5)">7</text>
<text x="16.0" y="-170.8888888888889" font-size="15.0" fill="#000000" text-anchor="middle" transform="translate(0,7.5)">6</text>
<text x="16.0" y="-144.1111111111111" font-size="15.0" fill="#000000" text-anchor="middle" transform="translate(0,7.5)">5</text>
<text x="16.0" y="-117.33333333333331" font-size="15.0" fill="#000000" text-anchor="middle" transform="translate(0,7.5)">4</text>
<text x="16.0" y="-90.55555555555554" font-size="15.0" fill="#000000" text-anchor="middle" transform="translate(0,7.5)">3</text>
<text x="16.0" y="-63.77777777777777" font-size="15.0" fill="#000000" text-anchor="middle" transform="translate(0,7.5)">2</text>
<text x="16.0" y="-37.0" font-size="15.0" fill="#000000" text-anchor="middle" transform="translate(0,7.5)">1</text>
<text x="34.0" y="-17.0" font-size="15.0" fill="#000000" text-anchor="middle" transform="translate(0,7.5)">A</text>
<text x="60.77777777777778" y="-17.0" font-size="15.0" fill="#000000" text-anchor="middle" transform="translate(0,7.5)">B</text>
<text x="87.55555555555556" y="-17.0" font-size="15.0" fill="#000000" text-anchor="middle" transform="translate(0,7.5)">C</text>
<text x="114.33333333333333" y="-17.0" font-size="15.0" fill="#000000" text-anchor="middle" transform="translate(0,7.5)">D</text>
<text x="141.11111111111111" y="-17.0" font-size="15.0" fill="#000000" text-anchor="middle" transform="translate(0,7.5)">E</text>
<text x="167.88888888888889" y="-17.0" font-size="15.0" fill="#000000" text-anchor="middle" transform="translate(0,7.5)">F</text>
<text x="194.66666666666666" y="-17.0" font-size="15.0" fill="#000000" text-anchor="middle" transform="translate(0,7.5)">G</text>
<text x="221.44444444444446" y="-17.0" font-size="15.0" fill="#000000" text-anchor="middle" transform="translate(0,7.5)">H</text>
<text x="248.22222222222223" y="-17.0" font-size="15.0" fill="#000000" text-anchor="middle" transform="translate(0,7.5)">J</text>
<text x="275.0" y="-17.0" font-size="15.0" fill="#000000" text-anchor="middle" transform="translate(0,7.5)">K</text>
<text x="301.77777777777777" y="-17.0" font-size="15.0" fill="#000000" text-anchor="middle" transform="translate(0,7.5)">L</text>
<text x="328.55555555555554" y="-17.0" font-size="15.0" fill="#000000" text-anchor="middle" transform="translate(0,7.5)">M</text>
<text x="355.3333333333333" y="-17.0" font-size="15.0" fill="#000000" text-anchor="middle" transform="translate(0,7.5)">N</text>
<text x="382.1111111111111" y="-17.0" font-size="15.0" fill="#000000" text-anchor="middle" transform="translate(0,7.5)">O</text>
<text x="408.8888888888889" y="-17.0" font-size="15.0" fill="#000000" text-anchor="middle" transform="translate(0,7.5)">P</text>
<text x="435.6666666666667" y="-17.0" font-size="15.0" fill="#000000" text-anchor="middle" transform="translate(0,7.5)">Q</text>
<text x="462.44444444444446" y="-17.0" font-size="15.0" fill="#000000" text-anchor="middle" transform="translate(0,7.5)">R</text>
<text x="489.22222222222223" y="-17.0" font-size="15.0" fill="#000000" text-anchor="middle" transform="translate(0,7.5)">S</text>
<text x="516.0" y="-17.0" font-size="15.0" fill="#000000" text-anchor="middle" transform="translate(0,7.5)">T</text>
<circle cx="275.0" cy="-516.0" r="11.18421052631579" stroke="black" stroke-width="1.3" fill="#000000" />
<circle cx="301.77777777777777" cy="-516.0" r="11.18421052631579" stroke="black" stroke-width="1.3" fill="#FFFFFF" />
<circle cx="328.55555555555554" cy="-516.0" r="11.18421052631579" stroke="black" stroke-width="1.3" fill="#FFFFFF" />
<circle cx="114.33333333333333" cy="-489.22222222222223" r="11.18421052631579" stroke="black" stroke-width="1.3" fill="#000000" />
<circle cx="275.0" cy="-489.22222222222223" r="11.18421052631579" stroke="black" stroke-width="1.3" fill="#000000" />
<circle cx="301.77777777777777" cy="-489.22222222222223" r="11.18421052631579" stroke="black" stroke-width="1.3" fill="#FFFFFF" />
<circle cx="355.3333333333333" cy="-489.22222222222223" r="11.18421052631579" stroke="black" stroke-width="1.3" fill="#FFFFFF" />
<circle cx="408.8888888888889" cy="-489.22222222222223" r="11.18421052631579" stroke="black" stroke-width="1.3" fill="#FFFFFF" />
<circle cx="435.6666666666667" cy="-489.22222222222223" r="11.18421052631579" stroke="black" stroke-width="1.3" fill="#FFFFFF" />
<circle cx="462.44444444444446" cy="-489.22222222222223" r="11.18421052631579" stroke="black" stroke-width="1.3" fill="#000000" />
<circle cx="87.55555555555556" cy="-462.44444444444446" r="11.18421052631579" stroke="black" stroke-width="1.3" fill="#FFFFFF" />
<circle cx="114.33333333333333" cy="-462.44444444444446" r="11.18421052631579" stroke="black" stroke-width="1.3" fill="#FFFFFF" />
<circle cx="167.88888888888889" cy="-462.44444444444446" r="11.18421052631579" stroke="black" stroke-width="1.3" fill="#000000" />
<circle cx="248.22222222222223" cy="-462.44444444444446" r="11.18421052631579" stroke="black" stroke-width="1.3" fill="#FFFFFF" />
<circle cx="275.0" cy="-462.44444444444446" r="11.18421052631579" stroke="black" stroke-width="1.3" fill="#000000" />
<circle cx="301.77777777777777" cy="-462.44444444444446" r="11.18421052631579" stroke="black" stroke-width="1.3" fill="#000000" />
<circle cx="328.55555555555554" cy="-462.44444444444446" r="11.18421052631579" stroke="black" stroke-width="1.3" fill="#FFFFFF" />
<circle cx="355.3333333333333" cy="-462.44444444444446" r="11.18421052631579" stroke="black" stroke-width="1.3" fill="#FFFFFF" />
<circle cx="408.8888888888889" cy="-462.44444444444446" r="11.18421052631579" stroke="black" stroke-width="1.3" fill="#FFFFFF" />
<circle cx="435.6666666666667" cy="-462.44444444444446" r="11.18421052631579" stroke="black" stroke-width="1.3" fill="#000000" />
<circle cx="328.55555555555554" cy="-435.6666666666667" r="11.18421052631579" stroke="black" stroke-width="1.3" fill="#000000" />
<circle cx="355.3333333333333" cy="-435.6666666666667" r="11.18421052631579" stroke="black" stroke-width="1.3" fill="#000000" />
<circle cx="382.1111111111111" cy="-435.6666666666667" r="11.18421052631579" stroke="black" stroke-width="1.3" fill="#000000" />
<circle cx="462.44444444444446" cy="-435.6666666666667" r="11.18421052631579" stroke="black" stroke-width="1.3" fill="#000000" />
<circle cx="167.88888888888889" cy="-408.8888888888889" r="11.18421052631579" stroke="black" stroke-width="1.3" fill="#000000" />
<circle cx="301.77777777777777" cy="-408.8888888888889" r="11.18421052631579" stroke="black" stroke-width="1.3" fill="#000000" />
<circle cx="435.6666666666667" cy="-408.8888888888889" r="11.18421052631579" stroke="black" stroke-width="1.3" fill="#000000" />
<circle cx="462.44444444444446" cy="-408.8888888888889" r="11.18421052631579" stroke="black" stroke-width="1.3" fill="#000000" />
<circle cx="87.55555555555556" cy="-382.1111111111111" r="11.18421052631579" stroke="black" stroke-width="1.3" fill="#FFFFFF" />
<circle cx="435.6666666666667" cy="-382.1111111111111" r="11.18421052631579" stroke="black" stroke-width="1.3" fill="#000000" />
<circle cx="462.44444444444446" cy="-382.1111111111111" r="11.18421052631579" stroke="black" stroke-width="1.3" fill="#FFFFFF" />
<circle cx="489.22222222222223" cy="-382.1111111111111" r="11.18421052631579" stroke="black" stroke-width="1.3" fill="#FFFFFF" />
<circle cx="382.1111111111111" cy="-355.33333333333337" r="11.18421052631579" stroke="black" stroke-width="1.3" fill="#FFFFFF" />
<circle cx="408.8888888888889" cy="-355.33333333333337" r="11.18421052631579" stroke="black" stroke-width="1.3" fill="#FFFFFF" />
<circle cx="435.6666666666667" cy="-355.33333333333337" r="11.18421052631579" stroke="black" stroke-width="1.3" fill="#FFFFFF" />
<circle cx="462.44444444444446" cy="-355.33333333333337" r="11.18421052631579" stroke="black" stroke-width="1.3" fill="#000000" />
<circle cx="489.22222222222223" cy="-355.33333333333337" r="11.18421052631579" stroke="black" stroke-width="1.3" fill="#000000" />
<circle cx="516.0" cy="-355.33333333333337" r="11.18421052631579" stroke="black" stroke-width="1.3" fill="#000000" />
<circle cx="408.8888888888889" cy="-328.55555555555554" r="11.18421052631579" stroke="black" stroke-width="1.3" fill="#000000" />
<circle cx="435.6666666666667" cy="-328.55555555555554" r="11.18421052631579" stroke="black" stroke-width="1.3" fill="#FFFFFF" />
<circle cx="462.44444444444446" cy="-328.55555555555554" r="11.18421052631579" stroke="black" stroke-width="1.3" fill="#FFFFFF" />
<circle cx="489.22222222222223" cy="-328.55555555555554" r="11.18421052631579" stroke="black" stroke-width="1.3" fill="#FFFFFF" />
<circle cx="516.0" cy="-328.55555555555554" r="11.18421052631579" stroke="black" stroke-width="1.3" fill="#000000" />
<circle cx="275.0" cy="-301.77777777777777" r="11.18421052631579" stroke="black" stroke-width="1.3" fill="#000000" />
<circle cx="355.3333333333333" cy="-301.77777777777777" r="11.18421052631579" stroke="black" stroke-width="1.3" fill="#000000" />
<circle cx="382.1111111111111" cy="-301.77777777777777" r="11.18421052631579" stroke="black" stroke-width="1.3" fill="#FFFFFF" />
<circle cx="408.8888888888889" cy="-301.77777777777777" r="11.18421052631579" stroke="black" stroke-width="1.3" fill="#FFFFFF" />
<circle cx="435.6666666666667" cy="-301.77777777777777" r="11.18421052631579" stroke="black" stroke-width="1.3" fill="#000000" />
<circle cx="462.44444444444446" cy="-301.77777777777777" r="11.18421052631579" stroke="black" stroke-width="1.3" fill="#000000" />
<circle cx="489.22222222222223" cy="-301.77777777777777" r="11.18421052631579" stroke="black" stroke-width="1.3" fill="#000000" />
<circle cx="355.3333333333333" cy="-275.0" r="11.18421052631579" stroke="black" stroke-width="1.3" fill="#FFFFFF" />
<circle cx="382.1111111111111" cy="-275.0" r="11.18421052631579" stroke="black" stroke-width="1.3" fill="#FFFFFF" />
<circle cx="408.8888888888889" cy="-275.0" r="11.18421052631579" stroke="black" stroke-width="1.3" fill="#000000" />
<circle cx="462.44444444444446" cy="-275.0" r="11.18421052631579" stroke="black" stroke-width="1.3" fill="#000000" />
<circle cx="489.22222222222223" cy="-275.0" r="11.18421052631579" stroke="black" stroke-width="1.3" fill="#FFFFFF" />
<circle cx="87.55555555555556" cy="-248.22222222222223" r="11.18421052631579" stroke="black" stroke-width="1.3" fill="#FFFFFF" />
<circle cx="408.8888888888889" cy="-248.22222222222223" r="11.18421052631579" stroke="black" stroke-width="1.3" fill="#FFFFFF" />
<circle cx="435.6666666666667" cy="-248.22222222222223" r="11.18421052631579" stroke="black" stroke-width="1.3" fill="#000000" />
<circle cx="462.44444444444446" cy="-248.22222222222223" r="11.18421052631579" stroke="black" stroke-width="1.3" fill="#000000" />
<circle cx="489.22222222222223" cy="-248.22222222222223" r="11.18421052631579" stroke="black" stroke-width="1.3" fill="#FFFFFF" />
<circle cx="408.8888888888889" cy="-221.44444444444446" r="11.18421052631579" stroke="black" stroke-width="1.3" fill="#FFFFFF" />
<circle cx="435.6666666666667" cy="-221.44444444444446" r="11.18421052631579" stroke="black" stroke-width="1.3" fill="#000000" />
<circle cx="462.44444444444446" cy="-221.44444444444446" r="11.18421052631579" stroke="black" stroke-width="1.3" fill="#FFFFFF" />
<circle cx="489.22222222222223" cy="-221.44444444444446" r="11.18421052631579" stroke="black" stroke-width="1.3" fill="#000000" />
<circle cx="355.3333333333333" cy="-194.66666666666669" r="11.18421052631579" stroke="black" stroke-width="1.3" fill="#FFFFFF" />
<circle cx="408.8888888888889" cy="-194.66666666666669" r="11.18421052631579" stroke="black" stroke-width="1.3" fill="#FFFFFF" />
<circle cx="435.6666666666667" cy="-194.66666666666669" r="11.18421052631579" stroke="black" stroke-width="1.3" fill="#000000" />
<circle cx="462.44444444444446" cy="-194.66666666666669" r="11.18421052631579" stroke="black" stroke-width="1.3" fill="#FFFFFF" />
<circle cx="489.22222222222223" cy="-194.66666666666669" r="11.18421052631579" stroke="black" stroke-width="1.3" fill="#FFFFFF" />
<circle cx="87.55555555555556" cy="-167.8888888888889" r="11.18421052631579" stroke="black" stroke-width="1.3" fill="#FFFFFF" />
<circle cx="275.0" cy="-167.8888888888889" r="11.18421052631579" stroke="black" stroke-width="1.3" fill="#000000" />
<circle cx="328.55555555555554" cy="-167.8888888888889" r="11.18421052631579" stroke="black" stroke-width="1.3" fill="#000000" />
<circle cx="355.3333333333333" cy="-167.8888888888889" r="11.18421052631579" stroke="black" stroke-width="1.3" fill="#FFFFFF" />
<circle cx="408.8888888888889" cy="-167.8888888888889" r="11.18421052631579" stroke="black" stroke-width="1.3" fill="#FFFFFF" />
<circle cx="435.6666666666667" cy="-167.8888888888889" r="11.18421052631579" stroke="black" stroke-width="1.3" fill="#000000" />
<circle cx="194.66666666666666" cy="-141.1111111111111" r="11.18421052631579" stroke="black" stroke-width="1.3" fill="#000000" />
<circle cx="248.22222222222223" cy="-141.1111111111111" r="11.18421052631579" stroke="black" stroke-width="1.3" fill="#FFFFFF" />
<circle cx="328.55555555555554" cy="-141.1111111111111" r="11.18421052631579" stroke="black" stroke-width="1.3" fill="#000000" />
<circle cx="355.3333333333333" cy="-141.1111111111111" r="11.18421052631579" stroke="black" stroke-width="1.3" fill="#FFFFFF" />
<circle cx="382.1111111111111" cy="-141.1111111111111" r="11.18421052631579" stroke="black" stroke-width="1.3" fill="#000000" />
<circle cx="408.8888888888889" cy="-141.1111111111111" r="11.18421052631579" stroke="black" stroke-width="1.3" fill="#FFFFFF" />
<circle cx="435.6666666666667" cy="-141.1111111111111" r="11.18421052631579" stroke="black" stroke-width="1.3" fill="#000000" />
<circle cx="462.44444444444446" cy="-141.1111111111111" r="11.18421052631579" stroke="black" stroke-width="1.3" fill="#FFFFFF" />
<circle cx="87.55555555555556" cy="-114.33333333333331" r="11.18421052631579" stroke="black" stroke-width="1.3" fill="#000000" />
<circle cx="141.11111111111111" cy="-114.33333333333331" r="11.18421052631579" stroke="black" stroke-width="1.3" fill="#000000" />
<circle cx="221.44444444444446" cy="-114.33333333333331" r="11.18421052631579" stroke="black" stroke-width="1.3" fill="#000000" />
<circle cx="328.55555555555554" cy="-114.33333333333331" r="11.18421052631579" stroke="black" stroke-width="1.3" fill="#000000" />
<circle cx="355.3333333333333" cy="-114.33333333333331" r="11.18421052631579" stroke="black" stroke-width="1.3" fill="#FFFFFF" />
<circle cx="382.1111111111111" cy="-114.33333333333331" r="11.18421052631579" stroke="black" stroke-width="1.3" fill="#FFFFFF" />
<circle cx="408.8888888888889" cy="-114.33333333333331" r="11.18421052631579" stroke="black" stroke-width="1.3" fill="#000000" />
<circle cx="435.6666666666667" cy="-114.33333333333331" r="11.18421052631579" stroke="black" stroke-width="1.3" fill="#FFFFFF" />
<circle cx="462.44444444444446" cy="-114.33333333333331" r="11.18421052631579" stroke="black" stroke-width="1.3" fill="#FFFFFF" />
<circle cx="167.88888888888889" cy="-87.55555555555554" r="11.18421052631579" stroke="black" stroke-width="1.3" fill="#000000" />
<circle cx="194.66666666666666" cy="-87.55555555555554" r="11.18421052631579" stroke="black" stroke-width="1.3" fill="#FFFFFF" />
<circle cx="221.44444444444446" cy="-87.55555555555554" r="11.18421052631579" stroke="black" stroke-width="1.3" fill="#000000" />
<circle cx="248.22222222222223" cy="-87.55555555555554" r="11.18421052631579" stroke="black" stroke-width="1.3" fill="#FFFFFF" />
<circle cx="301.77777777777777" cy="-87.55555555555554" r="11.18421052631579" stroke="black" stroke-width="1.3" fill="#FFFFFF" />
<circle cx="328.55555555555554" cy="-87.55555555555554" r="11.18421052631579" stroke="black" stroke-width="1.3" fill="#FFFFFF" />
<circle cx="355.3333333333333" cy="-87.55555555555554" r="11.18421052631579" stroke="black" stroke-width="1.3" fill="#000000" />
<circle cx="382.1111111111111" cy="-87.55555555555554" r="11.18421052631579" stroke="black" stroke-width="1.3" fill="#000000" />
<circle cx="408.8888888888889" cy="-87.55555555555554" r="11.18421052631579" stroke="black" stroke-width="1.3" fill="#000000" />
<circle cx="435.6666666666667" cy="-87.55555555555554" r="11.18421052631579" stroke="black" stroke-width="1.3" fill="#000000" />
<circle cx="462.44444444444446" cy="-87.55555555555554" r="11.18421052631579" stroke="black" stroke-width="1.3" fill="#FFFFFF" />
<circle cx="489.22222222222223" cy="-87.55555555555554" r="11.18421052631579" stroke="black" stroke-width="1.3" fill="#FFFFFF" />
<circle cx="194.66666666666666" cy="-60.77777777777777" r="11.18421052631579" stroke="black" stroke-width="1.3" fill="#000000" />
<circle cx="275.0" cy="-60.77777777777777" r="11.18421052631579" stroke="black" stroke-width="1.3" fill="#FFFFFF" />
<circle cx="301.77777777777777" cy="-60.77777777777777" r="11.18421052631579" stroke="black" stroke-width="1.3" fill="#FFFFFF" />
<circle cx="355.3333333333333" cy="-60.77777777777777" r="11.18421052631579" stroke="black" stroke-width="1.3" fill="#FFFFFF" />
<circle cx="382.1111111111111" cy="-60.77777777777777" r="11.18421052631579" stroke="black" stroke-width="1.3" fill="#000000" />
<circle cx="408.8888888888889" cy="-60.77777777777777" r="11.18421052631579" stroke="black" stroke-width="1.3" fill="#000000" />
<circle cx="462.44444444444446" cy="-60.77777777777777" r="11.18421052631579" stroke="black" stroke-width="1.3" fill="#000000" />
<circle cx="489.22222222222223" cy="-60.77777777777777" r="11.18421052631579" stroke="black" stroke-width="1.3" fill="#FFFFFF" />
<circle cx="248.22222222222223" cy="-34.0" r="11.18421052631579" stroke="black" stroke-width="1.3" fill="#FFFFFF" />
<circle cx="328.55555555555554" cy="-34.0" r="11.18421052631579" stroke="black" stroke-width="1.3" fill="#FFFFFF" />
<circle cx="382.1111111111111" cy="-34.0" r="11.18421052631579" stroke="black" stroke-width="1.3" fill="#000000" />
<circle cx="435.6666666666667" cy="-34.0" r="11.18421052631579" stroke="black" stroke-width="1.3" fill="#000000" />
<circle cx="489.22222222222223" cy="-34.0" r="11.18421052631579" stroke="black" stroke-width="1.3" fill="#000000" />
<circle cx="275.0" cy="-301.77777777777777" r="8.947368421052632" stroke-width="2" stroke="#EEEEEE" />
</svg>