<?xml version="1.0" encoding="UTF-8"?>
<svg xmlns="http://www.w3.org/2000/svg" xmlns:xlink="http://www.w3.org/1999/xlink"
     width="300" height="300" viewBox="0 -300 300 300">
<defs>
</defs>
<rect x="0.0" y="-300.0" width="300.0" height="300.0" fill="#000000" />
<rect x="21.5" y="-278.5" width="10.0" height="10.0" fill="#AA1010" />
<rect x="34.5" y="-278.5" width="10.0" height="10.0" fill="#AA1010" />
<rect x="47.5" y="-278.5" width="10.0" height="10.0" fill="#AA1010" />
<rect x="60.5" y="-278.5" width="10.0" height="10.0" fill="#AA1010" />
<rect x="73.5" y="-278.5" width="10.0" height="10.0" fill="#3030AA" />
<rect x="86.5" y="-278.5" width="10.0" height="10.0" fill="#AA1010" />
<rect x="99.5" y="-278.5" width="10.0" height="10.0" fill="#3030AA" />
<rect x="112.5" y="-278.5" width="10.0" height="10.0" fill="#3030AA" />
<rect x="125.5" y="-278.5" width="10.0" height="10.0" fill="#AA1010" />
<rect x="138.5" y="-278.5" width="10.0" height="10.0" fill="#3030AA" />
<rect x="151.5" y="-278.5" width="10.0" height="10.0" fill="#3030AA" />
<rect x="164.5" y="-278.5" width="10.0" height="10.0" fill="#AA1010" />
<rect x="177.5" y="-278.5" width="10.0" height="10.0" fill="#AA1010" />
<rect x="190.5" y="-278.5" width="10.0" height="10.0" fill="#AA1010" />
<rect x="203.5" y="-278.5" width="10.0" height="10.0" fill="#3030AA" />
<rect x="216.5" y="-278.5" width="10.0" height="10.0" fill="#3030AA" />
<rect x="229.5" y="-278.5" width="10.0" height="10.0" fill="#AA1010" />
<rect x="242.5" y="-278.5" width="10.0" height="10.0" fill="#3030AA" />
<rect x="255.5" y="-278.5" width="10.0" height="10.0" fill="#AA1010" />
<rect x="268.5" y="-278.5" width="10.0" height="10.0" fill="#3030AA" />
<rect x="21.5" y="-265.5" width="10.0" height="10.0" fill="#3030AA" />
<rect x="34.5" y="-265.5" width="10.0" height="10.0" fill="#3030AA" />
<rect x="47.5" y="-265.5" width="10.0" height="10.0" fill="#3030AA" />
<rect x="60.5" y="-265.5" width="10.0" height="10.0" fill="#AA1010" />
<rect x="73.5" y="-265.5" width="10.0" height="10.0" fill="#AA1010" />
<rect x="86.5" y="-265.5" width="10.0" height="10.0" fill="#3030AA" />
<rect x="99.5" y="-265.5" width="10.0" height="10.0" fill="#AA1010" />
<rect x="112.5" y="-265.5" width="10.0" height="10.0" fill="#AA1010" />
<rect x="125.5" y="-265.5" width="10.0" height="10.0" fill="#3030AA" />
<rect x="138.5" y="-265.5" width="10.0" height="10.0" fill="#AA1010" />
<rect x="151.5" y="-265.5" width="10.0" height="10.0" fill="#3030AA" />
<rect x="164.5" y="-265.5" width="10.0" height="10.0" fill="#AA1010" />
<rect x="177.5" y="-265.5" width="10.0" height="10.0" fill="#AA1010" />
<rect x="190.5" y="-265.5" width="10.0" height="10.0" fill="#3030AA" />
<rect x="203.5" y="-265.5" width="10.0" height="10.0" fill="#AA1010" />
<rect x="216.5" y="-265.5" width="10.0" height="10.0" fill="#3030AA" />
<rect x="229.5" y="-265.5" width="10.0" height="10.0" fill="#AA1010" />
<rect x="242.5" y="-265.5" width="10.0" height="10.0" fill="#AA1010" />
<rect x="255.5" y="-265.5" width="10.0" height="10.0" fill="#3030AA" />
<rect x="268.5" y="-265.5" width="10.0" height="10.0" fill="#AA1010" />
<rect x="21.5" y="-252.5" width="10.0" height="10.0" fill="#3030AA" />
<rect x="34.5" y="-252.5" width="10.0" height="10.0" fill="#AA1010" />
<rect x="47.5" y="-252.5" width="10.0" height="10.0" fill="#AA1010" />
<rect x="60.5" y="-252.5" width="10.0" height="10.0" fill="#AA1010" />
<rect x="73.5" y="-252.5" width="10.0" height="10.0" fill="#AA1010" />
<rect x="86.5" y="-252.5" width="10.0" height="10.0" fill="#AA1010" />
<rect x="99.5" y="-252.5" width="10.0" height="10.0" fill="#AA1010" />
<rect x="112.5" y="-252.5" width="10.0" height="10.0" fill="#AA1010" />
<rect x="125.5" y="-252.5" width="10.0" height="10.0" fill="#AA1010" />
<rect x="138.5" y="-252.5" width="10.0" height="10.0" fill="#3030AA" />
<rect x="151.5" y="-252.5" width="10.0" height="10.0" fill="#AA1010" />
<rect x="164.5" y="-252.5" width="10.0" height="10.0" fill="#3030AA" />
<rect x="177.5" y="-252.5" width="10.0" height="10.0" fill="#AA1010" />
<rect x="190.5" y="-252.5" width="10.0" height="10.0" fill="#3030AA" />
<rect x="203.5" y="-252.5" width="10.0" height="10.0" fill="#AA1010" />
<rect x="216.5" y="-252.5" width="10.0" height="10.0" fill="#AA1010" />
<rect x="229.5" y="-252.5" width="10.0" height="10.0" fill="#AA1010" />
<rect x="242.5" y="-252.5" width="10.0" height="10.0" fill="#3030AA" />
<rect x="255.5" y="-252.5" width="10.0" height="10.0" fill="#AA1010" />
<rect x="268.5" y="-252.5" width="10.0" height="10.0" fill="#AA1010" />
<rect x="21.5" y="-239.5" width="10.0" height="10.0" fill="#3030AA" />
<rect x="34.5" y="-239.5" width="10.0" height="10.0" fill="#3030AA" />
<rect x="47.5" y="-239.5" width="10.0" height="10.0" fill="#3030AA" />
<rect x="60.5" y="-239.5" width="10.0" height="10.0" fill="#3030AA" />
<rect x="73.5" y="-239.5" width="10.0" height="10.0" fill="#AA1010" />
<rect x="86.5" y="-239.5" width="10.0" height="10.0" fill="#3030AA" />
<rect x="99.5" y="-239.5" width="10.0" height="10.0" fill="#AA1010" />
<rect x="112.5" y="-239.5" width="10.0" height="10.0" fill="#3030AA" />
<rect x="125.5" y="-239.5" width="10.0" height="10.0" fill="#3030AA" />
<rect x="138.5" y="-239.5" width="10.0" height="10.0" fill="#AA1010" />
<rect x="151.5" y="-239.5" width="10.0" height="10.0" fill="#3030AA" />
<rect x="164.5" y="-239.5" width="10.0" height="10.0" fill="#AA1010" />
<rect x="177.5" y="-239.5" width="10.0" height="10.0" fill="#3030AA" />
<rect x="190.5" y="-239.5" width="10.0" height="10.0" fill="#AA1010" />
<rect x="203.5" y="-239.5" width="10.0" height="10.0" fill="#AA1010" />
<rect x="216.5" y="-239.5" width="10.0" height="10.0" fill="#3030AA" />
<rect x="229.5" y="-239.5" width="10.0" height="10.0" fill="#3030AA" />
<rect x="242.5" y="-239.5" width="10.0" height="10.0" fill="#3030AA" />
<rect x="255.5" y="-239.5" width="10.0" height="10.0" fill="#3030AA" />
<rect x="268.5" y="-239.5" width="10.0" height="10.0" fill="#3030AA" />
<rect x="21.5" y="-226.5" width="10.0" height="10.0" fill="#AA1010" />
<rect x="34.5" y="-226.5" width="10.0" height="10.0" fill="#AA1010" />
<rect x="47.5" y="-226.5" width="10.0" height="10.0" fill="#3030AA" />
<rect x="60.5" y="-226.5" width="10.0" height="10.0" fill="#AA1010" />
<rect x="73.5" y="-226.5" width="10.0" height="10.0" fill="#3030AA" />
<rect x="86.5" y="-226.5" width="10.0" height="10.0" fill="#3030AA" />
<rect x="99.5" y="-226.5" width="10.0" height="10.0" fill="#3030AA" />
<rect x="112.5" y="-226.5" width="10.0" height="10.0" fill="#3030AA" />
<rect x="125.5" y="-226.5" width="10.0" height="10.0" fill="#AA1010" />
<rect x="138.5" y="-226.5" width="10.0" height="10.0" fill="#3030AA" />
<rect x="151.5" y="-226.5" width="10.0" height="10.0" fill="#3030AA" />
<rect x="164.5" y="-226.5" width="10.0" height="10.0" fill="#AA1010" />
<rect x="177.5" y="-226.5" width="10.0" height="10.0" fill="#AA1010" />
<rect x="190.5" y="-226.5" width="10.0" height="10.0" fill="#3030AA" />
<rect x="203.5" y="-226.5" width="10.0" height="10.0" fill="#AA1010" />
<rect x="216.5" y="-226.5" width="10.0" height="10.0" fill="#AA1010" />
<rect x="229.5" y="-226.5" width="10.0" height="10.0" fill="#AA1010" />
<rect x="242.5" y="-226.5" width="10.0" height="10.0" fill="#3030AA" />
<rect x="255.5" y="-226.5" width="10.0" height="10.0" fill="#AA1010" />
<rect x="268.5" y="-226.5" width="10.0" height="10.0" fill="#AA1010" />
<rect x="21.5" y="-213.5" width="10.0" height="10.0" fill="#AA1010" />
<rect x="34.5" y="-213.5" width="10.0" height="10.0" fill="#3030AA" />
<rect x="47.5" y="-213.5" width="10.0" height="10.0" fill="#AA1010" />
<rect x="60.5" y="-213.5" width="10.0" height="10.0" fill="#AA1010" />
<rect x="73.5" y="-213.5" width="10.0" height="10.0" fill="#3030AA" />
<rect x="86.5" y="-213.5" width="10.0" height="10.0" fill="#3030AA" />
<rect x="99.5" y="-213.5" width="10.0" height="10.0" fill="#3030AA" />
<rect x="112.5" y="-213.5" width="10.0" height="10.0" fill="#3030AA" />
<rect x="125.5" y="-213.5" width="10.0" height="10.0" fill="#3030AA" />
<rect x="138.5" y="-213.5" width="10.0" height="10.0" fill="#3030AA" />
<rect x="151.5" y="-213.5" width="10.0" height="10.0" fill="#3030AA" />
<rect x="164.5" y="-213.5" width="10.0" height="10.0" fill="#3030AA" />
<rect x="177.5" y="-213.5" width="10.0" height="10.0" fill="#3030AA" />
<rect x="190.5" y="-213.5" width="10.0" height="10.0" fill="#3030AA" />
<rect x="203.5" y="-213.5" width="10.0" height="10.0" fill="#3030AA" />
<rect x="216.5" y="-213.5" width="10.0" height="10.0" fill="#AA1010" />
<rect x="229.5" y="-213.5" width="10.0" height="10.0" fill="#3030AA" />
<rect x="242.5" y="-213.5" width="10.0" height="10.0" fill="#AA1010" />
<rect x="255.5" y="-213.5" width="10.0" height="10.0" fill="#AA1010" />
<rect x="268.5" y="-213.5" width="10.0" height="10.0" fill="#3030AA" />
<rect x="21.5" y="-200.5" width="10.0" height="10.0" fill="#3030AA" />
<rect x="34.5" y="-200.5" width="10.0" height="10.0" fill="#AA1010" />
<rect x="47.5" y="-200.5" width="10.0" height="10.0" fill="#3030AA" />
<rect x="60.5" y="-200.5" width="10.0" height="10.0" fill="#3030AA" />
<rect x="73.5" y="-200.5" width="10.0" height="10.0" fill="#AA1010" />
<rect x="86.5" y="-200.5" width="10.0" height="10.0" fill="#AA1010" />
<rect x="99.5" y="-200.5" width="10.0" height="10.0" fill="#AA1010" />
<rect x="112.5" y="-200.5" width="10.0" height="10.0" fill="#3030AA" />
<rect x="125.5" y="-200.5" width="10.0" height="10.0" fill="#AA1010" />
<rect x="138.5" y="-200.5" width="10.0" height="10.0" fill="#3030AA" />
<rect x="151.5" y="-200.5" width="10.0" height="10.0" fill="#3030AA" />
<rect x="164.5" y="-200.5" width="10.0" height="10.0" fill="#3030AA" />
<rect x="177.5" y="-200.5" width="10.0" height="10.0" fill="#3030AA" />
<rect x="190.5" y="-200.5" width="10.0" height="10.0" fill="#AA1010" />
<rect x="203.5" y="-200.5" width="10.0" height="10.0" fill="#AA1010" />
<rect x="216.5" y="-200.5" width="10.0" height="10.0" fill="#3030AA" />
<rect x="229.5" y="-200.5" width="10.0" height="10.0" fill="#3030AA" />
<rect x="242.5" y="-200.5" width="10.0" height="10.0" fill="#3030AA" />
<rect x="255.5" y="-200.5" width="10.0" height="10.0" fill="#3030AA" />
<rect x="268.5" y="-200.5" width="10.0" height="10.0" fill="#AA1010" />
<rect x="21.5" y="-187.5" width="10.0" height="10.0" fill="#AA1010" />
<rect x="34.5" y="-187.5" width="10.0" height="10.0" fill="#AA1010" />
<rect x="47.5" y="-187.5" width="10.0" height="10.0" fill="#AA1010" />
<rect x="60.5" y="-187.5" width="10.0" height="10.0" fill="#3030AA" />
<rect x="73.5" y="-187.5" width="10.0" height="10.0" fill="#AA1010" />
<rect x="86.5" y="-187.5" width="10.0" height="10.0" fill="#3030AA" />
<rect x="99.5" y="-187.5" width="10.0" height="10.0" fill="#AA1010" />
<rect x="112.5" y="-187.5" width="10.0" height="10.0" fill="#AA1010" />
<rect x="125.5" y="-187.5" width="10.0" height="10.0" fill="#AA1010" />
<rect x="138.5" y="-187.5" width="10.0" height="10.0" fill="#3030AA" />
<rect x="151.5" y="-187.5" width="10.0" height="10.0" fill="#AA1010" />
<rect x="164.5" y="-187.5" width="10.0" height="10.0" fill="#AA1010" />
<rect x="177.5" y="-187.5" width="10.0" height="10.0" fill="#AA1010" />
<rect x="190.5" y="-187.5" width="10.0" height="10.0" fill="#3030AA" />
<rect x="203.5" y="-187.5" width="10.0" height="10.0" fill="#3030AA" />
<rect x="216.5" y="-187.5" width="10.0" height="10.0" fill="#3030AA" />
<rect x="229.5" y="-187.5" width="10.0" height="10.0" fill="#AA1010" />
<rect x="242.5" y="-187.5" width="10.0" height="10.0" fill="#3030AA" />
<rect x="255.5" y="-187.5" width="10.0" height="10.0" fill="#AA1010" />
<rect x="268.5" y="-187.5" width="10.0" height="10.0" fill="#3030AA" />
<rect x="21.5" y="-174.5" width="10.0" height="10.0" fill="#AA1010" />
<rect x="34.5" y="-174.5" width="10.0" height="10.0" fill="#AA1010" />
<rect x="47.5" y="-174.5" width="10.0" height="10.0" fill="#AA1010" />
<rect x="60.5" y="-174.5" width="10.0" height="10.0" fill="#AA1010" />
<rect x="73.5" y="-174.5" width="10.0" height="10.0" fill="#3030AA" />
<rect x="86.5" y="-174.5" width="10.0" height="10.0" fill="#AA1010" />
<rect x="99.5" y="-174.5" width="10.0" height="10.0" fill="#AA1010" />
<rect x="112.5" y="-174.5" width="10.0" height="10.0" fill="#3030AA" />
<rect x="125.5" y="-174.5" width="10.0" height="10.0" fill="#AA1010" />
<rect x="138.5" y="-174.5" width="10.0" height="10.0" fill="#3030AA" />
<rect x="151.5" y="-174.5" width="10.0" height="10.0" fill="#AA1010" />
<rect x="164.5" y="-174.5" width="10.0" height="10.0" fill="#AA1010" />
<rect x="177.5" y="-174.5" width="10.0" height="10.0" fill="#AA1010" />
<rect x="190.5" y="-174.5" width="10.0" height="10.0" fill="#3030AA" />
<rect x="203.5" y="-174.5" width="10.0" height="10.0" fill="#3030AA" />
<rect x="216.5" y="-174.5" width="10.0" height="10.0" fill="#3030AA" />
<rect x="229.5" y="-174.5" width="10.0" height="10.0" fill="#AA1010" />
<rect x="242.5" y="-174.5" width="10.0" height="10.0" fill="#AA1010" />
<rect x="255.5" y="-174.5" width="10.0" height="10.0" fill="#AA1010" />
<rect x="268.5" y="-174.5" width="10.0" height="10.0" fill="#AA1010" />
<rect x="21.5" y="-161.5" width="10.0" height="10.0" fill="#3030AA" />
<rect x="34.5" y="-161.5" width="10.0" height="10.0" fill="#AA1010" />
<rect x="47.5" y="-161.5" width="10.0" height="10.0" fill="#3030AA" />
<rect x="60.5" y="-161.5" width="10.0" height="10.0" fill="#AA1010" />
<rect x="73.5" y="-161.5" width="10.0" height="10.0" fill="#AA1010" />
<rect x="86.5" y="-161.5" width="10.0" height="10.0" fill="#AA1010" />
<rect x="99.5" y="-161.5" width="10.0" height="10.0" fill="#3030AA" />
<rect x="112.5" y="-161.5" width="10.0" height="10.0" fill="#AA1010" />
<rect x="125.5" y="-161.5" width="10.0" height="10.0" fill="#3030AA" />
<rect x="138.5" y="-161.5" width="10.0" height="10.0" fill="#AA1010" />
<rect x="151.5" y="-161.5" width="10.0" height="10.0" fill="#AA1010" />
<rect x="164.5" y="-161.5" width="10.0" height="10.0" fill="#3030AA" />
<rect x="177.5" y="-161.5" width="10.0" height="10.0" fill="#3030AA" />
<rect x="190.5" y="-161.5" width="10.0" height="10.0" fill="#AA1010" />
<rect x="203.5" y="-161.5" width="10.0" height="10.0" fill="#AA1010" />
<rect x="216.5" y="-161.5" width="10.0" height="10.0" fill="#3030AA" />
<rect x="229.5" y="-161.5" width="10.0" height="10.0" fill="#AA1010" />
<rect x="242.5" y="-161.5" width="10.0" height="10.0" fill="#AA1010" />
<rect x="255.5" y="-161.5" width="10.0" height="10.0" fill="#AA1010" />
<rect x="268.5" y="-161.5" width="10.0" height="10.0" fill="#3030AA" />
<rect x="21.5" y="-148.5" width="10.0" height="10.0" fill="#3030AA" />
<rect x="34.5" y="-148.5" width="10.0" height="10.0" fill="#AA1010" />
<rect x="47.5" y="-148.5" width="10.0" height="10.0" fill="#3030AA" />
<rect x="60.5" y="-148.5" width="10.0" height="10.0" fill="#3030AA" />
<rect x="73.5" y="-148.5" width="10.0" height="10.0" fill="#3030AA" />
<rect x="86.5" y="-148.5" width="10.0" height="10.0" fill="#AA1010" />
<rect x="99.5" y="-148.5" width="10.0" height="10.0" fill="#3030AA" />
<rect x="112.5" y="-148.5" width="10.0" height="10.0" fill="#3030AA" />
<rect x="125.5" y="-148.5" width="10.0" height="10.0" fill="#AA1010" />
<rect x="138.5" y="-148.5" width="10.0" height="10.0" fill="#AA1010" />
<rect x="151.5" y="-148.5" width="10.0" height="10.0" fill="#AA1010" />
<rect x="164.5" y="-148.5" width="10.0" height="10.0" fill="#AA1010" />
<rect x="177.5" y="-148.5" width="10.0" height="10.0" fill="#3030AA" />
<rect x="190.5" y="-148.5" width="10.0" height="10.0" fill="#3030AA" />
<rect x="203.5" y="-148.5" width="10.0" height="10.0" fill="#3030AA" />
<rect x="216.5" y="-148.5" width="10.0" height="10.0" fill="#3030AA" />
<rect x="229.5" y="-148.5" width="10.0" height="10.0" fill="#3030AA" />
<rect x="242.5" y="-148.5" width="10.0" height="10.0" fill="#AA1010" />
<rect x="255.5" y="-148.5" width="10.0" height="10.0" fill="#AA1010" />
<rect x="268.5" y="-148.5" width="10.0" height="10.0" fill="#3030AA" />
<rect x="21.5" y="-135.5" width="10.0" height="10.0" fill="#AA1010" />
<rect x="34.5" y="-135.5" width="10.0" height="10.0" fill="#AA1010" />
<rect x="47.5" y="-135.5" width="10.0" height="10.0" fill="#AA1010" />
<rect x="60.5" y="-135.5" width="10.0" height="10.0" fill="#3030AA" />
<rect x="73.5" y="-135.5" width="10.0" height="10.0" fill="#3030AA" />
<rect x="86.5" y="-135.5" width="10.0" height="10.0" fill="#AA1010" />
<rect x="99.5" y="-135.5" width="10.0" height="10.0" fill="#3030AA" />
<rect x="112.5" y="-135.5" width="10.0" height="10.0" fill="#AA1010" />
<rect x="125.5" y="-135.5" width="10.0" height="10.0" fill="#3030AA" />
<rect x="138.5" y="-135.5" width="10.0" height="10.0" fill="#AA1010" />
<rect x="151.5" y="-135.5" width="10.0" height="10.0" fill="#3030AA" />
<rect x="164.5" y="-135.5" width="10.0" height="10.0" fill="#AA1010" />
<rect x="177.5" y="-135.5" width="10.0" height="10.0" fill="#AA1010" />
<rect x="190.5" y="-135.5" width="10.0" height="10.0" fill="#AA1010" />
<rect x="203.5" y="-135.5" width="10.0" height="10.0" fill="#AA1010" />
<rect x="216.5" y="-135.5" width="10.0" height="10.0" fill="#AA1010" />
<rect x="229.5" y="-135.5" width="10.0" height="10.0" fill="#AA1010" />
<rect x="242.5" y="-135.5" width="10.0" height="10.0" fill="#AA1010" />
<rect x="255.5" y="-135.5" width="10.0" height="10.0" fill="#3030AA" />
<rect x="268.5" y="-135.5" width="10.0" height="10.0" fill="#3030AA" />
<rect x="21.5" y="-122.5" width="10.0" height="10.0" fill="#3030AA" />
<rect x="34.5" y="-122.5" width="10.0" height="10.0" fill="#AA1010" />
<rect x="47.5" y="-122.5" width="10.0" height="10.0" fill="#AA1010" />
<rect x="60.5" y="-122.5" width="10.0" height="10.0" fill="#AA1010" />
<rect x="73.5" y="-122.5" width="10.0" height="10.0" fill="#3030AA" />
<rect x="86.5" y="-122.5" width="10.0" height="10.0" fill="#3030AA" />
<rect x="99.5" y="-122.5" width="10.0" height="10.0" fill="#AA1010" />
<rect x="112.5" y="-122.5" width="10.0" height="10.0" fill="#3030AA" />
<rect x="125.5" y="-122.5" width="10.0" height="10.0" fill="#AA1010" />
<rect x="138.5" y="-122.5" width="10.0" height="10.0" fill="#3030AA" />
<rect x="151.5" y="-122.5" width="10.0" height="10.0" fill="#3030AA" />
<rect x="164.5" y="-122.5" width="10.0" height="10.0" fill="#AA1010" />
<rect x="177.5" y="-122.5" width="10.0" height="10.0" fill="#3030AA" />
<rect x="190.5" y="-122.5" width="10.0" height="10.0" fill="#3030AA" />
<rect x="203.5" y="-122.5" width="10.0" height="10.0" fill="#3030AA" />
<rect x="216.5" y="-122.5" width="10.0" height="10.0" fill="#3030AA" />
<rect x="229.5" y="-122.5" width="10.0" height="10.0" fill="#3030AA" />
<rect x="242.5" y="-122.5" width="10.0" height="10.0" fill="#3030AA" />
<rect x="255.5" y="-122.5" width="10.0" height="10.0" fill="#AA1010" />
<rect x="268.5" y="-122.5" width="10.0" height="10.0" fill="#3030AA" />
<rect x="21.5" y="-109.5" width="10.0" height="10.0" fill="#3030AA" />
<rect x="34.5" y="-109.5" width="10.0" height="10.0" fill="#AA1010" />
<rect x="47.5" y="-109.5" width="10.0" height="10.0" fill="#AA1010" />
<rect x="60.5" y="-109.5" width="10.0" height="10.0" fill="#AA1010" />
<rect x="73.5" y="-109.5" width="10.0" height="10.0" fill="#AA1010" />
<rect x="86.5" y="-109.5" width="10.0" height="10.0" fill="#3030AA" />
<rect x="99.5" y="-109.5" width="10.0" height="10.0" fill="#3030AA" />
<rect x="112.5" y="-109.5" width="10.0" height="10.0" fill="#AA1010" />
<rect x="125.5" y="-109.5" width="10.0" height="10.0" fill="#3030AA" />
<rect x="138.5" y="-109.5" width="10.0" height="10.0" fill="#3030AA" />
<rect x="151.5" y="-109.5" width="10.0" height="10.0" fill="#AA1010" />
<rect x="164.5" y="-109.5" width="10.0" height="10.0" fill="#3030AA" />
<rect x="177.5" y="-109.5" width="10.0" height="10.0" fill="#AA1010" />
<rect x="190.5" y="-109.5" width="10.0" height="10.0" fill="#AA1010" />
<rect x="203.5" y="-109.5" width="10.0" height="10.0" fill="#AA1010" />
<rect x="216.5" y="-109.5" width="10.0" height="10.0" fill="#AA1010" />
<rect x="229.5" y="-109.5" width="10.0" height="10.0" fill="#AA1010" />
<rect x="242.5" y="-109.5" width="10.0" height="10.0" fill="#AA1010" />
<rect x="255.5" y="-109.5" width="10.0" height="10.0" fill="#3030AA" />
<rect x="268.5" y="-109.5" width="10.0" height="10.0" fill="#AA1010" />
<rect x="21.5" y="-96.5" width="10.0" height="10.0" fill="#AA1010" />
<rect x="34.5" y="-96.5" width="10.0" height="10.0" fill="#3030AA" />
<rect x="47.5" y="-96.5" width="10.0" height="10.0" fill="#3030AA" />
<rect x="60.5" y="-96.5" width="10.0" height="10.0" fill="#3030AA" />
<rect x="73.5" y="-96.5" width="10.0" height="10.0" fill="#AA1010" />
<rect x="86.5" y="-96.5" width="10.0" height="10.0" fill="#AA1010" />
<rect x="99.5" y="-96.5" width="10.0" height="10.0" fill="#3030AA" />
<rect x="112.5" y="-96.5" width="10.0" height="10.0" fill="#AA1010" />
<rect x="125.5" y="-96.5" width="10.0" height="10.0" fill="#3030AA" />
<rect x="138.5" y="-96.5" width="10.0" height="10.0" fill="#3030AA" />
<rect x="151.5" y="-96.5" width="10.0" height="10.0" fill="#AA1010" />
<rect x="164.5" y="-96.5" width="10.0" height="10.0" fill="#AA1010" />
<rect x="177.5" y="-96.5" width="10.0" height="10.0" fill="#3030AA" />
<rect x="190.5" y="-96.5" width="10.0" height="10.0" fill="#3030AA" />
<rect x="203.5" y="-96.5" width="10.0" height="10.0" fill="#3030AA" />
<rect x="216.5" y="-96.5" width="10.0" height="10.0" fill="#AA1010" />
<rect x="229.5" y="-96.5" width="10.0" height="10.0" fill="#AA1010" />
<rect x="242.5" y="-96.5" width="10.0" height="10.0" fill="#AA1010" />
<rect x="255.5" y="-96.5" width="10.0" height="10.0" fill="#AA1010" />
<rect x="268.5" y="-96.5" width="10.0" height="10.0" fill="#AA1010" />
<rect x="21.5" y="-83.5" width="10.0" height="10.0" fill="#AA1010" />
<rect x="34.5" y="-83.5" width="10.0" height="10.0" fill="#3030AA" />
<rect x="47.5" y="-83.5" width="10.0" height="10.0" fill="#AA1010" />
<rect x="60.5" y="-83.5" width="10.0" height="10.0" fill="#AA1010" />
<rect x="73.5" y="-83.5" width="10.0" height="10.0" fill="#3030AA" />
<rect x="86.5" y="-83.5" width="10.0" height="10.0" fill="#AA1010" />
<rect x="99.5" y="-83.5" width="10.0" height="10.0" fill="#AA1010" />
<rect x="112.5" y="-83.5" width="10.0" height="10.0" fill="#3030AA" />
<rect x="125.5" y="-83.5" width="10.0" height="10.0" fill="#3030AA" />
<rect x="138.5" y="-83.5" width="10.0" height="10.0" fill="#AA1010" />
<rect x="151.5" y="-83.5" width="10.0" height="10.0" fill="#AA1010" />
<rect x="164.5" y="-83.5" width="10.0" height="10.0" fill="#AA1010" />
<rect x="177.5" y="-83.5" width="10.0" height="10.0" fill="#AA1010" />
<rect x="190.5" y="-83.5" width="10.0" height="10.0" fill="#AA1010" />
<rect x="203.5" y="-83.5" width="10.0" height="10.0" fill="#3030AA" />
<rect x="216.5" y="-83.5" width="10.0" height="10.0" fill="#AA1010" />
<rect x="229.5" y="-83.5" width="10.0" height="10.0" fill="#3030AA" />
<rect x="242.5" y="-83.5" width="10.0" height="10.0" fill="#3030AA" />
<rect x="255.5" y="-83.5" width="10.0" height="10.0" fill="#3030AA" />
<rect x="268.5" y="-83.5" width="10.0" height="10.0" fill="#AA1010" />
<rect x="21.5" y="-70.5" width="10.0" height="10.0" fill="#3030AA" />
<rect x="34.5" y="-70.5" width="10.0" height="10.0" fill="#3030AA" />
<rect x="47.5" y="-70.5" width="10.0" height="10.0" fill="#AA1010" />
<rect x="60.5" y="-70.5" width="10.0" height="10.0" fill="#3030AA" />
<rect x="73.5" y="-70.5" width="10.0" height="10.0" fill="#AA1010" />
<rect x="86.5" y="-70.5" width="10.0" height="10.0" fill="#3030AA" />
<rect x="99.5" y="-70.5" width="10.0" height="10.0" fill="#AA1010" />
<rect x="112.5" y="-70.5" width="10.0" height="10.0" fill="#AA1010" />
<rect x="125.5" y="-70.5" width="10.0" height="10.0" fill="#AA1010" />
<rect x="138.5" y="-70.5" width="10.0" height="10.0" fill="#AA1010" />
<rect x="151.5" y="-70.5" width="10.0" height="10.0" fill="#3030AA" />
<rect x="164.5" y="-70.5" width="10.0" height="10.0" fill="#3030AA" />
<rect x="177.5" y="-70.5" width="10.0" height="10.0" fill="#AA1010" />
<rect x="190.5" y="-70.5" width="10.0" height="10.0" fill="#AA1010" />
<rect x="203.5" y="-70.5" width="10.0" height="10.0" fill="#3030AA" />
<rect x="216.5" y="-70.5" width="10.0" height="10.0" fill="#AA1010" />
<rect x="229.5" y="-70.5" width="10.0" height="10.0" fill="#3030AA" />
<rect x="242.5" y="-70.5" width="10.0" height="10.0" fill="#AA1010" />
<rect x="255.5" y="-70.5" width="10.0" height="10.0" fill="#AA1010" />
<rect x="268.5" y="-70.5" width="10.0" height="10.0" fill="#AA1010" />
<rect x="21.5" y="-57.5" width="10.0" height="10.0" fill="#3030AA" />
<rect x="34.5" y="-57.5" width="10.0" height="10.0" fill="#AA1010" />
<rect x="47.5" y="-57.5" width="10.0" height="10.0" fill="#AA1010" />
<rect x="60.5" y="-57.5" width="10.0" height="10.0" fill="#3030AA" />
<rect x="73.5" y="-57.5" width="10.0" height="10.0" fill="#AA1010" />
<rect x="86.5" y="-57.5" width="10.0" height="10.0" fill="#AA1010" />
<rect x="99.5" y="-57.5" width="10.0" height="10.0" fill="#AA1010" />
<rect x="112.5" y="-57.5" width="10.0" height="10.0" fill="#3030AA" />
<rect x="125.5" y="-57.5" width="10.0" height="10.0" fill="#AA1010" />
<rect x="138.5" y="-57.5" width="10.0" height="10.0" fill="#AA1010" />
<rect x="151.5" y="-57.5" width="10.0" height="10.0" fill="#AA1010" />
<rect x="164.5" y="-57.5" width="10.0" height="10.0" fill="#AA1010" />
<rect x="177.5" y="-57.5" width="10.0" height="10.0" fill="#3030AA" />
<rect x="190.5" y="-57.5" width="10.0" height="10.0" fill="#AA1010" />
<rect x="203.5" y="-57.5" width="10.0" height="10.0" fill="#AA1010" />
<rect x="216.5" y="-57.5" width="10.0" height="10.0" fill="#3030AA" />
<rect x="229.5" y="-57.5" width="10.0" height="10.0" fill="#3030AA" />
<rect x="242.5" y="-57.5" width="10.0" height="10.0" fill="#3030AA" />
<rect x="255.5" y="-57.5" width="10.0" height="10.0" fill="#3030AA" />
<rect x="268.5" y="-57.5" width="10.0" height="10.0" fill="#3030AA" />
<rect x="21.5" y="-44.5" width="10.0" height="10.0" fill="#AA1010" />
<rect x="34.5" y="-44.5" width="10.0" height="10.0" fill="#AA1010" />
<rect x="47.5" y="-44.5" width="10.0" height="10.0" fill="#AA1010" />
<rect x="60.5" y="-44.5" width="10.0" height="10.0" fill="#AA1010" />
<rect x="73.5" y="-44.5" width="10.0" height="10.0" fill="#3030AA" />
<rect x="86.5" y="-44.5" width="10.0" height="10.0" fill="#3030AA" />
<rect x="99.5" y="-44.5" width="10.0" height="10.0" fill="#AA1010" />
<rect x="112.5" y="-44.5" width="10.0" height="10.0" fill="#AA1010" />
<rect x="125.5" y="-44.5" width="10.0" height="10.0" fill="#3030AA" />
<rect x="138.5" y="-44.5" width="10.0" height="10.0" fill="#AA1010" />
<rect x="151.5" y="-44.5" width="10.0" height="10.0" fill="#3030AA" />
<rect x="164.5" y="-44.5" width="10.0" height="10.0" fill="#3030AA" />
<rect x="177.5" y="-44.5" width="10.0" height="10.0" fill="#3030AA" />
<rect x="190.5" y="-44.5" width="10.0" height="10.0" fill="#AA1010" />
<rect x="203.5" y="-44.5" width="10.0" height="10.0" fill="#3030AA" />
<rect x="216.5" y="-44.5" width="10.0" height="10.0" fill="#3030AA" />
<rect x="229.5" y="-44.5" width="10.0" height="10.0" fill="#AA1010" />
<rect x="242.5" y="-44.5" width="10.0" height="10.0" fill="#AA1010" />
<rect x="255.5" y="-44.5" width="10.0" height="10.0" fill="#AA1010" />
<rect x="268.5" y="-44.5" width="10.0" height="10.0" fill="#3030AA" />
<rect x="21.5" y="-31.5" width="10.0" height="10.0" fill="#AA1010" />
<rect x="34.5" y="-31.5" width="10.0" height="10.0" fill="#3030AA" />
<rect x="47.5" y="-31.5" width="10.0" height="10.0" fill="#AA1010" />
<rect x="60.5" y="-31.5" width="10.0" height="10.0" fill="#3030AA" />
<rect x="73.5" y="-31.5" width="10.0" height="10.0" fill="#AA1010" />
<rect x="86.5" y="-31.5" width="10.0" height="10.0" fill="#3030AA" />
<rect x="99.5" y="-31.5" width="10.0" height="10.0" fill="#3030AA" />
<rect x="112.5" y="-31.5" width="10.0" height="10.0" fill="#AA1010" />
<rect x="125.5" y="-31.5" width="10.0" height="10.0" fill="#3030AA" />
<rect x="138.5" y="-31.5" width="10.0" height="10.0" fill="#AA1010" />
<rect x="151.5" y="-31.5" width="10.0" height="10.0" fill="#AA1010" />
<rect x="164.5" y="-31.5" width="10.0" height="10.0" fill="#AA1010" />
<rect x="177.5" y="-31.5" width="10.0" height="10.0" fill="#3030AA" />
<rect x="190.5" y="-31.5" width="10.0" height="10.0" fill="#3030AA" />
<rect x="203.5" y="-31.5" width="10.0" height="10.0" fill="#3030AA" />
<rect x="216.5" y="-31.5" width="10.0" height="10.0" fill="#AA1010" />
<rect x="229.5" y="-31.5" width="10.0" height="10.0" fill="#AA1010" />
<rect x="242.5" y="-31.5" width="10.0" height="10.0" fill="#3030AA" />
<rect x="255.5" y="-31.5" width="10.0" height="10.0" fill="#AA1010" />
<rect x="268.5" y="-31.5" width="10.0" height="10.0" fill="#3030AA" />
</svg>