<?xml version="1.0" encoding="UTF-8"?>
<svg xmlns="http://www.w3.org/2000/svg" xmlns:xlink="http://www.w3.org/1999/xlink"
     width="62" height="413" viewBox="0 -413 62 413">
<defs>
</defs>
<rect x="0.0" y="-413.0" width="62.0" height="413.0" fill="#000000" />
<rect x="0.0" y="-413.0" width="10.0" height="10.0" fill="#AA1010" />
<rect x="13.0" y="-413.0" width="10.0" height="10.0" fill="#AA1010" />
<rect x="26.0" y="-413.0" width="10.0" height="10.0" fill="#AA1010" />
<rect x="39.0" y="-413.0" width="10.0" height="10.0" fill="#AA1010" />
<rect x="52.0" y="-413.0" width="10.0" height="10.0" fill="#AA1010" />
<rect x="0.0" y="-400.0" width="10.0" height="10.0" fill="#3030AA" />
<rect x="13.0" y="-400.0" width="10.0" height="10.0" fill="#AA1010" />
<rect x="26.0" y="-400.0" width="10.0" height="10.0" fill="#AA1010" />
<rect x="39.0" y="-400.0" width="10.0" height="10.0" fill="#AA1010" />
<rect x="52.0" y="-400.0" width="10.0" height="10.0" fill="#AA1010" />
<rect x="0.0" y="-387.0" width="10.0" height="10.0" fill="#AA1010" />
<rect x="13.0" y="-387.0" width="10.0" height="10.0" fill="#3030AA" />
<rect x="26.0" y="-387.0" width="10.0" height="10.0" fill="#AA1010" />
<rect x="39.0" y="-387.0" width="10.0" height="10.0" fill="#AA1010" />
<rect x="52.0" y="-387.0" width="10.0" height="10.0" fill="#AA1010" />
<rect x="0.0" y="-374.0" width="10.0" height="10.0" fill="#3030AA" />
<rect x="13.0" y="-374.0" width="10.0" height="10.0" fill="#3030AA" />
<rect x="26.0" y="-374.0" width="10.0" height="10.0" fill="#AA1010" />
<rect x="39.0" y="-374.0" width="10.0" height="10.0" fill="#AA1010" />
<rect x="52.0" y="-374.0" width="10.0" height="10.0" fill="#AA1010" />
<rect x="0.0" y="-361.0" width="10.0" height="10.0" fill="#AA1010" />
<rect x="13.0" y="-361.0" width="10.0" height="10.0" fill="#AA1010" />
<rect x="26.0" y="-361.0" width="10.0" height="10.0" fill="#3030AA" />
<rect x="39.0" y="-361.0" width="10.0" height="10.0" fill="#AA1010" />
<rect x="52.0" y="-361.0" width="10.0" height="10.0" fill="#AA1010" />
<rect x="0.0" y="-348.0" width="10.0" height="10.0" fill="#3030AA" />
<rect x="13.0" y="-348.0" width="10.0" height="10.0" fill="#AA1010" />
<rect x="26.0" y="-348.0" width="10.0" height="10.0" fill="#3030AA" />
<rect x="39.0" y="-348.0" width="10.0" height="10.0" fill="#AA1010" />
<rect x="52.0" y="-348.0" width="10.0" height="10.0" fill="#AA1010" />
<rect x="0.0" y="-335.0" width="10.0" height="10.0" fill="#AA1010" />
<rect x="13.0" y="-335.0" width="10.0" height="10.0" fill="#3030AA" />
<rect x="26.0" y="-335.0" width="10.0" height="10.0" fill="#3030AA" />
<rect x="39.0" y="-335.0" width="10.0" height="10.0" fill="#AA1010" />
<rect x="52.0" y="-335.0" width="10.0" height="10.0" fill="#AA1010" />
<rect x="0.0" y="-322.0" width="10.0" height="10.0" fill="#3030AA" />
<rect x="13.0" y="-322.0" width="10.0" height="10.0" fill="#3030AA" />
<rect x="26.0" y="-322.0" width="10.0" height="10.0" fill="#3030AA" />
<rect x="39.0" y="-322.0" width="10.0" height="10.0" fill="#AA1010" />
<rect x="52.0" y="-322.0" width="10.0" height="10.0" fill="#AA1010" />
<rect x="0.0" y="-309.0" width="10.0" height="10.0" fill="#AA1010" />
<rect x="13.0" y="-309.0" width="10.0" height="10.0" fill="#AA1010" />
<rect x="26.0" y="-309.0" width="10.0" height="10.0" fill="#AA1010" />
<rect x="39.0" y="-309.0" width="10.0" height="10.0" fill="#3030AA" />
<rect x="52.0" y="-309.0" width="10.0" height="10.0" fill="#AA1010" />
<rect x="0.0" y="-296.0" width="10.0" height="10.0" fill="#3030AA" />
<rect x="13.0" y="-296.0" width="10.0" height="10.0" fill="#AA1010" />
<rect x="26.0" y="-296.0" width="10.0" height="10.0" fill="#AA1010" />
<rect x="39.0" y="-296.0" width="10.0" height="10.0" fill="#3030AA" />
<rect x="52.0" y="-296.0" width="10.0" height="10.0" fill="#AA1010" />
<rect x="0.0" y="-283.0" width="10.0" height="10.0" fill="#AA1010" />
<rect x="13.0" y="-283.0" width="10.0" height="10.0" fill="#3030AA" />
<rect x="26.0" y="-283.0" width="10.0" height="10.0" fill="#AA1010" />
<rect x="39.0" y="-283.0" width="10.0" height="10.0" fill="#3030AA" />
<rect x="52.0" y="-283.0" width="10.0" height="10.0" fill="#AA1010" />
<rect x="0.0" y="-270.0" width="10.0" height="10.0" fill="#3030AA" />
<rect x="13.0" y="-270.0" width="10.0" height="10.0" fill="#3030AA" />
<rect x="26.0" y="-270.0" width="10.0" height="10.0" fill="#AA1010" />
<rect x="39.0" y="-270.0" width="10.0" height="10.0" fill="#3030AA" />
<rect x="52.0" y="-270.0" width="10.0" height="10.0" fill="#AA1010" />
<rect x="0.0" y="-257.0" width="10.0" height="10.0" fill="#AA1010" />
<rect x="13.0" y="-257.0" width="10.0" height="10.0" fill="#AA1010" />
<rect x="26.0" y="-257.0" width="10.0" height="10.0" fill="#3030AA" />
<rect x="39.0" y="-257.0" width="10.0" height="10.0" fill="#3030AA" />
<rect x="52.0" y="-257.0" width="10.0" height="10.0" fill="#AA1010" />
<rect x="0.0" y="-244.0" width="10.0" height="10.0" fill="#3030AA" />
<rect x="13.0" y="-244.0" width="10.0" height="10.0" fill="#AA1010" />
<rect x="26.0" y="-244.0" width="10.0" height="10.0" fill="#3030AA" />
<rect x="39.0" y="-244.0" width="10.0" height="10.0" fill="#3030AA" />
<rect x="52.0" y="-244.0" width="10.0" height="10.0" fill="#AA1010" />
<rect x="0.0" y="-231.0" width="10.0" height="10.0" fill="#AA1010" />
<rect x="13.0" y="-231.0" width="10.0" height="10.0" fill="#3030AA" />
<rect x="26.0" y="-231.0" width="10.0" height="10.0" fill="#3030AA" />
<rect x="39.0" y="-231.0" width="10.0" height="10.0" fill="#3030AA" />
<rect x="52.0" y="-231.0" width="10.0" height="10.0" fill="#AA1010" />
<rect x="0.0" y="-218.0" width="10.0" height="10.0" fill="#3030AA" />
<rect x="13.0" y="-218.0" width="10.0" height="10.0" fill="#3030AA" />
<rect x="26.0" y="-218.0" width="10.0" height="10.0" fill="#3030AA" />
<rect x="39.0" y="-218.0" width="10.0" height="10.0" fill="#3030AA" />
<rect x="52.0" y="-218.0" width="10.0" height="10.0" fill="#AA1010" />
<rect x="0.0" y="-205.0" width="10.0" height="10.0" fill="#AA1010" />
<rect x="13.0" y="-205.0" width="10.0" height="10.0" fill="#AA1010" />
<rect x="26.0" y="-205.0" width="10.0" height="10.0" fill="#AA1010" />
<rect x="39.0" y="-205.0" width="10.0" height="10.0" fill="#AA1010" />
<rect x="52.0" y="-205.0" width="10.0" height="10.0" fill="#3030AA" />
<rect x="0.0" y="-192.0" width="10.0" height="10.0" fill="#3030AA" />
<rect x="13.0" y="-192.0" width="10.0" height="10.0" fill="#AA1010" />
<rect x="26.0" y="-192.0" width="10.0" height="10.0" fill="#AA1010" />
<rect x="39.0" y="-192.0" width="10.0" height="10.0" fill="#AA1010" />
<rect x="52.0" y="-192.0" width="10.0" height="10.0" fill="#3030AA" />
<rect x="0.0" y="-179.0" width="10.0" height="10.0" fill="#AA1010" />
<rect x="13.0" y="-179.0" width="10.0" height="10.0" fill="#3030AA" />
<rect x="26.0" y="-179.0" width="10.0" height="10.0" fill="#AA1010" />
<rect x="39.0" y="-179.0" width="10.0" height="10.0" fill="#AA1010" />
<rect x="52.0" y="-179.0" width="10.0" height="10.0" fill="#3030AA" />
<rect x="0.0" y="-166.0" width="10.0" height="10.0" fill="#3030AA" />
<rect x="13.0" y="-166.0" width="10.0" height="10.0" fill="#3030AA" />
<rect x="26.0" y="-166.0" width="10.0" height="10.0" fill="#AA1010" />
<rect x="39.0" y="-166.0" width="10.0" height="10.0" fill="#AA1010" />
<rect x="52.0" y="-166.0" width="10.0" height="10.0" fill="#3030AA" />
<rect x="0.0" y="-153.0" width="10.0" height="10.0" fill="#AA1010" />
<rect x="13.0" y="-153.0" width="10.0" height="10.0" fill="#AA1010" />
<rect x="26.0" y="-153.0" width="10.0" height="10.0" fill="#3030AA" />
<rect x="39.0" y="-153.0" width="10.0" height="10.0" fill="#AA1010" />
<rect x="52.0" y="-153.0" width="10.0" height="10.0" fill="#3030AA" />
<rect x="0.0" y="-140.0" width="10.0" height="10.0" fill="#3030AA" />
<rect x="13.0" y="-140.0" width="10.0" height="10.0" fill="#AA1010" />
<rect x="26.0" y="-140.0" width="10.0" height="10.0" fill="#3030AA" />
<rect x="39.0" y="-140.0" width="10.0" height="10.0" fill="#AA1010" />
<rect x="52.0" y="-140.0" width="10.0" height="10.0" fill="#3030AA" />
<rect x="0.0" y="-127.0" width="10.0" height="10.0" fill="#AA1010" />
<rect x="13.0" y="-127.0" width="10.0" height="10.0" fill="#3030AA" />
<rect x="26.0" y="-127.0" width="10.0" height="10.0" fill="#3030AA" />
<rect x="39.0" y="-127.0" width="10.0" height="10.0" fill="#AA1010" />
<rect x="52.0" y="-127.0" width="10.0" height="10.0" fill="#3030AA" />
<rect x="0.0" y="-114.0" width="10.0" height="10.0" fill="#3030AA" />
<rect x="13.0" y="-114.0" width="10.0" height="10.0" fill="#3030AA" />
<rect x="26.0" y="-114.0" width="10.0" height="10.0" fill="#3030AA" />
<rect x="39.0" y="-114.0" width="10.0" height="10.0" fill="#AA1010" />
<rect x="52.0" y="-114.0" width="10.0" height="10.0" fill="#3030AA" />
<rect x="0.0" y="-101.0" width="10.0" height="10.0" fill="#AA1010" />
<rect x="13.0" y="-101.0" width="10.0" height="10.0" fill="#AA1010" />
<rect x="26.0" y="-101.0" width="10.0" height="10.0" fill="#AA1010" />
<rect x="39.0" y="-101.0" width="10.0" height="10.0" fill="#3030AA" />
<rect x="52.0" y="-101.0" width="10.0" height="10.0" fill="#3030AA" />
<rect x="0.0" y="-88.0" width="10.0" height="10.0" fill="#3030AA" />
<rect x="13.0" y="-88.0" width="10.0" height="10.0" fill="#AA1010" />
<rect x="26.0" y="-88.0" width="10.0" height="10.0" fill="#AA1010" />
<rect x="39.0" y="-88.0" width="10.0" height="10.0" fill="#3030AA" />
<rect x="52.0" y="-88.0" width="10.0" height="10.0" fill="#3030AA" />
<rect x="0.0" y="-75.0" width="10.0" height="10.0" fill="#AA1010" />
<rect x="13.0" y="-75.0" width="10.0" height="10.0" fill="#3030AA" />
<rect x="26.0" y="-75.0" width="10.0" height="10.0" fill="#AA1010" />
<rect x="39.0" y="-75.0" width="10.0" height="10.0" fill="#3030AA" />
<rect x="52.0" y="-75.0" width="10.0" height="10.0" fill="#3030AA" />
<rect x="0.0" y="-62.0" width="10.0" height="10.0" fill="#3030AA" />
<rect x="13.0" y="-62.0" width="10.0" height="10.0" fill="#3030AA" />
<rect x="26.0" y="-62.0" width="10.0" height="10.0" fill="#AA1010" />
<rect x="39.0" y="-62.0" width="10.0" height="10.0" fill="#3030AA" />
<rect x="52.0" y="-62.0" width="10.0" height="10.0" fill="#3030AA" />
<rect x="0.0" y="-49.0" width="10.0" height="10.0" fill="#AA1010" />
<rect x="13.0" y="-49.0" width="10.0" height="10.0" fill="#AA1010" />
<rect x="26.0" y="-49.0" width="10.0" height="10.0" fill="#3030AA" />
<rect x="39.0" y="-49.0" width="10.0" height="10.0" fill="#3030AA" />
<rect x="52.0" y="-49.0" width="10.0" height="10.0" fill="#3030AA" />
<rect x="0.0" y="-36.0" width="10.0" height="10.0" fill="#3030AA" />
<rect x="13.0" y="-36.0" width="10.0" height="10.0" fill="#AA1010" />
<rect x="26.0" y="-36.0" width="10.0" height="10.0" fill="#3030AA" />
<rect x="39.0" y="-36.0" width="10.0" height="10.0" fill="#3030AA" />
<rect x="52.0" y="-36.0" width="10.0" height="10.0" fill="#3030AA" />
<rect x="0.0" y="-23.0" width="10.0" height="10.0" fill="#AA1010" />
<rect x="13.0" y="-23.0" width="10.0" height="10.0" fill="#3030AA" />
<rect x="26.0" y="-23.0" width="10.0" height="10.0" fill="#3030AA" />
<rect x="39.0" y="-23.0" width="10.0" height="10.0" fill="#3030AA" />
<rect x="52.0" y="-23.0" width="10.0" height="10.0" fill="#3030AA" />
<rect x="0.0" y="-10.0" width="10.0" height="10.0" fill="#3030AA" />
<rect x="13.0" y="-10.0" width="10.0" height="10.0" fill="#3030AA" />
<rect x="26.0" y="-10.0" width="10.0" height="10.0" fill="#3030AA" />
<rect x="39.0" y="-10.0" width="10.0" height="10.0" fill="#3030AA" />
<rect x="52.0" y="-10.0" width="10.0" height="10.0" fill="#3030AA" />
</svg>