<?xml version="1.0" encoding="UTF-8"?>
<svg xmlns="http://www.w3.org/2000/svg" xmlns:xlink="http://www.w3.org/1999/xlink"
     width="68" height="419" viewBox="0 -419 68 419">
<defs>
</defs>
<rect x="0.0" y="-419.0" width="68.0" height="419.0" fill="#000000" />
<rect x="3.0" y="-416.0" width="10.0" height="10.0" fill="#AA1010" />
<rect x="16.0" y="-416.0" width="10.0" height="10.0" fill="#AA1010" />
<rect x="29.0" y="-416.0" width="10.0" height="10.0" fill="#AA1010" />
<rect x="42.0" y="-416.0" width="10.0" height="10.0" fill="#AA1010" />
<rect x="55.0" y="-416.0" width="10.0" height="10.0" fill="#AA1010" />
<rect x="3.0" y="-403.0" width="10.0" height="10.0" fill="#AA1010" />
<rect x="16.0" y="-403.0" width="10.0" height="10.0" fill="#AA1010" />
<rect x="29.0" y="-403.0" width="10.0" height="10.0" fill="#AA1010" />
<rect x="42.0" y="-403.0" width="10.0" height="10.0" fill="#AA1010" />
<rect x="55.0" y="-403.0" width="10.0" height="10.0" fill="#3030AA" />
<rect x="3.0" y="-390.0" width="10.0" height="10.0" fill="#AA1010" />
<rect x="16.0" y="-390.0" width="10.0" height="10.0" fill="#AA1010" />
<rect x="29.0" y="-390.0" width="10.0" height="10.0" fill="#AA1010" />
<rect x="42.0" y="-390.0" width="10.0" height="10.0" fill="#3030AA" />
<rect x="55.0" y="-390.0" width="10.0" height="10.0" fill="#AA1010" />
<rect x="3.0" y="-377.0" width="10.0" height="10.0" fill="#AA1010" />
<rect x="16.0" y="-377.0" width="10.0" height="10.0" fill="#AA1010" />
<rect x="29.0" y="-377.0" width="10.0" height="10.0" fill="#AA1010" />
<rect x="42.0" y="-377.0" width="10.0" height="10.0" fill="#3030AA" />
<rect x="55.0" y="-377.0" width="10.0" height="10.0" fill="#3030AA" />
<rect x="3.0" y="-364.0" width="10.0" height="10.0" fill="#AA1010" />
<rect x="16.0" y="-364.0" width="10.0" height="10.0" fill="#AA1010" />
<rect x="29.0" y="-364.0" width="10.0" height="10.0" fill="#3030AA" />
<rect x="42.0" y="-364.0" width="10.0" height="10.0" fill="#AA1010" />
<rect x="55.0" y="-364.0" width="10.0" height="10.0" fill="#AA1010" />
<rect x="3.0" y="-351.0" width="10.0" height="10.0" fill="#AA1010" />
<rect x="16.0" y="-351.0" width="10.0" height="10.0" fill="#AA1010" />
<rect x="29.0" y="-351.0" width="10.0" height="10.0" fill="#3030AA" />
<rect x="42.0" y="-351.0" width="10.0" height="10.0" fill="#AA1010" />
<rect x="55.0" y="-351.0" width="10.0" height="10.0" fill="#3030AA" />
<rect x="3.0" y="-338.0" width="10.0" height="10.0" fill="#AA1010" />
<rect x="16.0" y="-338.0" width="10.0" height="10.0" fill="#AA1010" />
<rect x="29.0" y="-338.0" width="10.0" height="10.0" fill="#3030AA" />
<rect x="42.0" y="-338.0" width="10.0" height="10.0" fill="#3030AA" />
<rect x="55.0" y="-338.0" width="10.0" height="10.0" fill="#AA1010" />
<rect x="3.0" y="-325.0" width="10.0" height="10.0" fill="#AA1010" />
<rect x="16.0" y="-325.0" width="10.0" height="10.0" fill="#AA1010" />
<rect x="29.0" y="-325.0" width="10.0" height="10.0" fill="#3030AA" />
<rect x="42.0" y="-325.0" width="10.0" height="10.0" fill="#3030AA" />
<rect x="55.0" y="-325.0" width="10.0" height="10.0" fill="#3030AA" />
<rect x="3.0" y="-312.0" width="10.0" height="10.0" fill="#AA1010" />
<rect x="16.0" y="-312.0" width="10.0" height="10.0" fill="#3030AA" />
<rect x="29.0" y="-312.0" width="10.0" height="10.0" fill="#AA1010" />
<rect x="42.0" y="-312.0" width="10.0" height="10.0" fill="#AA1010" />
<rect x="55.0" y="-312.0" width="10.0" height="10.0" fill="#AA1010" />
<rect x="3.0" y="-299.0" width="10.0" height="10.0" fill="#AA1010" />
<rect x="16.0" y="-299.0" width="10.0" height="10.0" fill="#3030AA" />
<rect x="29.0" y="-299.0" width="10.0" height="10.0" fill="#AA1010" />
<rect x="42.0" y="-299.0" width="10.0" height="10.0" fill="#AA1010" />
<rect x="55.0" y="-299.0" width="10.0" height="10.0" fill="#3030AA" />
<rect x="3.0" y="-286.0" width="10.0" height="10.0" fill="#AA1010" />
<rect x="16.0" y="-286.0" width="10.0" height="10.0" fill="#3030AA" />
<rect x="29.0" y="-286.0" width="10.0" height="10.0" fill="#AA1010" />
<rect x="42.0" y="-286.0" width="10.0" height="10.0" fill="#3030AA" />
<rect x="55.0" y="-286.0" width="10.0" height="10.0" fill="#AA1010" />
<rect x="3.0" y="-273.0" width="10.0" height="10.0" fill="#AA1010" />
<rect x="16.0" y="-273.0" width="10.0" height="10.0" fill="#3030AA" />
<rect x="29.0" y="-273.0" width="10.0" height="10.0" fill="#AA1010" />
<rect x="42.0" y="-273.0" width="10.0" height="10.0" fill="#3030AA" />
<rect x="55.0" y="-273.0" width="10.0" height="10.0" fill="#3030AA" />
<rect x="3.0" y="-260.0" width="10.0" height="10.0" fill="#AA1010" />
<rect x="16.0" y="-260.0" width="10.0" height="10.0" fill="#3030AA" />
<rect x="29.0" y="-260.0" width="10.0" height="10.0" fill="#3030AA" />
<rect x="42.0" y="-260.0" width="10.0" height="10.0" fill="#AA1010" />
<rect x="55.0" y="-260.0" width="10.0" height="10.0" fill="#AA1010" />
<rect x="3.0" y="-247.0" width="10.0" height="10.0" fill="#AA1010" />
<rect x="16.0" y="-247.0" width="10.0" height="10.0" fill="#3030AA" />
<rect x="29.0" y="-247.0" width="10.0" height="10.0" fill="#3030AA" />
<rect x="42.0" y="-247.0" width="10.0" height="10.0" fill="#AA1010" />
<rect x="55.0" y="-247.0" width="10.0" height="10.0" fill="#3030AA" />
<rect x="3.0" y="-234.0" width="10.0" height="10.0" fill="#AA1010" />
<rect x="16.0" y="-234.0" width="10.0" height="10.0" fill="#3030AA" />
<rect x="29.0" y="-234.0" width="10.0" height="10.0" fill="#3030AA" />
<rect x="42.0" y="-234.0" width="10.0" height="10.0" fill="#3030AA" />
<rect x="55.0" y="-234.0" width="10.0" height="10.0" fill="#AA1010" />
<rect x="3.0" y="-221.0" width="10.0" height="10.0" fill="#AA1010" />
<rect x="16.0" y="-221.0" width="10.0" height="10.0" fill="#3030AA" />
<rect x="29.0" y="-221.0" width="10.0" height="10.0" fill="#3030AA" />
<rect x="42.0" y="-221.0" width="10.0" height="10.0" fill="#3030AA" />
<rect x="55.0" y="-221.0" width="10.0" height="10.0" fill="#3030AA" />
<rect x="3.0" y="-208.0" width="10.0" height="10.0" fill="#3030AA" />
<rect x="16.0" y="-208.0" width="10.0" height="10.0" fill="#AA1010" />
<rect x="29.0" y="-208.0" width="10.0" height="10.0" fill="#AA1010" />
<rect x="42.0" y="-208.0" width="10.0" height="10.0" fill="#AA1010" />
<rect x="55.0" y="-208.0" width="10.0" height="10.0" fill="#AA1010" />
<rect x="3.0" y="-195.0" width="10.0" height="10.0" fill="#3030AA" />
<rect x="16.0" y="-195.0" width="10.0" height="10.0" fill="#AA1010" />
<rect x="29.0" y="-195.0" width="10.0" height="10.0" fill="#AA1010" />
<rect x="42.0" y="-195.0" width="10.0" height="10.0" fill="#AA1010" />
<rect x="55.0" y="-195.0" width="10.0" height="10.0" fill="#3030AA" />
<rect x="3.0" y="-182.0" width="10.0" height="10.0" fill="#3030AA" />
<rect x="16.0" y="-182.0" width="10.0" height="10.0" fill="#AA1010" />
<rect x="29.0" y="-182.0" width="10.0" height="10.0" fill="#AA1010" />
<rect x="42.0" y="-182.0" width="10.0" height="10.0" fill="#3030AA" />
<rect x="55.0" y="-182.0" width="10.0" height="10.0" fill="#AA1010" />
<rect x="3.0" y="-169.0" width="10.0" height="10.0" fill="#3030AA" />
<rect x="16.0" y="-169.0" width="10.0" height="10.0" fill="#AA1010" />
<rect x="29.0" y="-169.0" width="10.0" height="10.0" fill="#AA1010" />
<rect x="42.0" y="-169.0" width="10.0" height="10.0" fill="#3030AA" />
<rect x="55.0" y="-169.0" width="10.0" height="10.0" fill="#3030AA" />
<rect x="3.0" y="-156.0" width="10.0" height="10.0" fill="#3030AA" />
<rect x="16.0" y="-156.0" width="10.0" height="10.0" fill="#AA1010" />
<rect x="29.0" y="-156.0" width="10.0" height="10.0" fill="#3030AA" />
<rect x="42.0" y="-156.0" width="10.0" height="10.0" fill="#AA1010" />
<rect x="55.0" y="-156.0" width="10.0" height="10.0" fill="#AA1010" />
<rect x="3.0" y="-143.0" width="10.0" height="10.0" fill="#3030AA" />
<rect x="16.0" y="-143.0" width="10.0" height="10.0" fill="#AA1010" />
<rect x="29.0" y="-143.0" width="10.0" height="10.0" fill="#3030AA" />
<rect x="42.0" y="-143.0" width="10.0" height="10.0" fill="#AA1010" />
<rect x="55.0" y="-143.0" width="10.0" height="10.0" fill="#3030AA" />
<rect x="3.0" y="-130.0" width="10.0" height="10.0" fill="#3030AA" />
<rect x="16.0" y="-130.0" width="10.0" height="10.0" fill="#AA1010" />
<rect x="29.0" y="-130.0" width="10.0" height="10.0" fill="#3030AA" />
<rect x="42.0" y="-130.0" width="10.0" height="10.0" fill="#3030AA" />
<rect x="55.0" y="-130.0" width="10.0" height="10.0" fill="#AA1010" />
<rect x="3.0" y="-117.0" width="10.0" height="10.0" fill="#3030AA" />
<rect x="16.0" y="-117.0" width="10.0" height="10.0" fill="#AA1010" />
<rect x="29.0" y="-117.0" width="10.0" height="10.0" fill="#3030AA" />
<rect x="42.0" y="-117.0" width="10.0" height="10.0" fill="#3030AA" />
<rect x="55.0" y="-117.0" width="10.0" height="10.0" fill="#3030AA" />
<rect x="3.0" y="-104.0" width="10.0" height="10.0" fill="#3030AA" />
<rect x="16.0" y="-104.0" width="10.0" height="10.0" fill="#3030AA" />
<rect x="29.0" y="-104.0" width="10.0" height="10.0" fill="#AA1010" />
<rect x="42.0" y="-104.0" width="10.0" height="10.0" fill="#AA1010" />
<rect x="55.0" y="-104.0" width="10.0" height="10.0" fill="#AA1010" />
<rect x="3.0" y="-91.0" width="10.0" height="10.0" fill="#3030AA" />
<rect x="16.0" y="-91.0" width="10.0" height="10.0" fill="#3030AA" />
<rect x="29.0" y="-91.0" width="10.0" height="10.0" fill="#AA1010" />
<rect x="42.0" y="-91.0" width="10.0" height="10.0" fill="#AA1010" />
<rect x="55.0" y="-91.0" width="10.0" height="10.0" fill="#3030AA" />
<rect x="3.0" y="-78.0" width="10.0" height="10.0" fill="#3030AA" />
<rect x="16.0" y="-78.0" width="10.0" height="10.0" fill="#3030AA" />
<rect x="29.0" y="-78.0" width="10.0" height="10.0" fill="#AA1010" />
<rect x="42.0" y="-78.0" width="10.0" height="10.0" fill="#3030AA" />
<rect x="55.0" y="-78.0" width="10.0" height="10.0" fill="#AA1010" />
<rect x="3.0" y="-65.0" width="10.0" height="10.0" fill="#3030AA" />
<rect x="16.0" y="-65.0" width="10.0" height="10.0" fill="#3030AA" />
<rect x="29.0" y="-65.0" width="10.0" height="10.0" fill="#AA1010" />
<rect x="42.0" y="-65.0" width="10.0" height="10.0" fill="#3030AA" />
<rect x="55.0" y="-65.0" width="10.0" height="10.0" fill="#3030AA" />
<rect x="3.0" y="-52.0" width="10.0" height="10.0" fill="#3030AA" />
<rect x="16.0" y="-52.0" width="10.0" height="10.0" fill="#3030AA" />
<rect x="29.0" y="-52.0" width="10.0" height="10.0" fill="#3030AA" />
<rect x="42.0" y="-52.0" width="10.0" height="10.0" fill="#AA1010" />
<rect x="55.0" y="-52.0" width="10.0" height="10.0" fill="#AA1010" />
<rect x="3.0" y="-39.0" width="10.0" height="10.0" fill="#3030AA" />
<rect x="16.0" y="-39.0" width="10.0" height="10.0" fill="#3030AA" />
<rect x="29.0" y="-39.0" width="10.0" height="10.0" fill="#3030AA" />
<rect x="42.0" y="-39.0" width="10.0" height="10.0" fill="#AA1010" />
<rect x="55.0" y="-39.0" width="10.0" height="10.0" fill="#3030AA" />
<rect x="3.0" y="-26.0" width="10.0" height="10.0" fill="#3030AA" />
<rect x="16.0" y="-26.0" width="10.0" height="10.0" fill="#3030AA" />
<rect x="29.0" y="-26.0" width="10.0" height="10.0" fill="#3030AA" />
<rect x="42.0" y="-26.0" width="10.0" height="10.0" fill="#3030AA" />
<rect x="55.0" y="-26.0" width="10.0" height="10.0" fill="#AA1010" />
<rect x="3.0" y="-13.0" width="10.0" height="10.0" fill="#3030AA" />
<rect x="16.0" y="-13.0" width="10.0" height="10.0" fill="#3030AA" />
<rect x="29.0" y="-13.0" width="10.0" height="10.0" fill="#3030AA" />
<rect x="42.0" y="-13.0" width="10.0" height="10.0" fill="#3030AA" />
<rect x="55.0" y="-13.0" width="10.0" height="10.0" fill="#3030AA" />
</svg>