<?xml version="1.0" encoding="UTF-8"?>
<svg xmlns="http://www.w3.org/2000/svg" xmlns:xlink="http://www.w3.org/1999/xlink"
     width="761" height="267" viewBox="0 -267 761 267">
<defs>
</defs>
<circle cx="17.5" cy="-76.5" r="9.0" stroke-width="0" fill="#66EA86" class="addr_row_member" id="data_addr_k1_0" />
<circle cx="39.5" cy="-76.5" r="9.0" stroke-width="0" fill="#66EA86" class="addr_row_member" id="data_addr_k1_1" />
<circle cx="61.5" cy="-76.5" r="9.0" stroke-width="0" fill="#66EA86" class="addr_row_member" id="data_addr_k1_2" />
<circle cx="83.5" cy="-76.5" r="9.0" stroke-width="0" fill="#66EA86" class="addr_row_member" id="data_addr_k1_3" />
<circle cx="105.5" cy="-76.5" r="9.0" stroke-width="0" fill="#DD4444" class="addr_row_member" id="data_addr_k1_4" />
<circle cx="127.5" cy="-76.5" r="9.0" stroke-width="0" fill="#DD4444" class="addr_row_member" id="data_addr_k1_5" />
<circle cx="149.5" cy="-76.5" r="9.0" stroke-width="0" fill="#DD4444" class="addr_row_member" id="data_addr_k1_6" />
<circle cx="171.5" cy="-76.5" r="9.0" stroke-width="0" fill="#DD4444" class="addr_row_member" id="data_addr_k1_7" />
<circle cx="193.5" cy="-76.5" r="9.0" stroke-width="0" fill="#66EA86" class="addr_row_member" id="data_addr_k1_8" />
<circle cx="215.5" cy="-76.5" r="9.0" stroke-width="0" fill="#66EA86" class="addr_row_member" id="data_addr_k1_9" />
<circle cx="237.5" cy="-76.5" r="9.0" stroke-width="0" fill="#66EA86" class="addr_row_member" id="data_addr_k1_10" />
<circle cx="259.5" cy="-76.5" r="9.0" stroke-width="0" fill="#66EA86" class="addr_row_member" id="data_addr_k1_11" />
<circle cx="281.5" cy="-76.5" r="9.0" stroke-width="0" fill="#DD4444" class="addr_row_member" id="data_addr_k1_12" />
<circle cx="303.5" cy="-76.5" r="9.0" stroke-width="0" fill="#DD4444" class="addr_row_member" id="data_addr_k1_13" />
<circle cx="325.5" cy="-76.5" r="9.0" stroke-width="0" fill="#66EA86" class="addr_row_member" id="data_addr_k1_14" />
<circle cx="347.5" cy="-76.5" r="9.0" stroke-width="0" fill="#66EA86" class="addr_row_member" id="data_addr_k1_15" />
<circle cx="369.5" cy="-76.5" r="9.0" stroke-width="0" fill="#66EA86" class="addr_row_member" id="data_addr_k1_16" />
<circle cx="391.5" cy="-76.5" r="9.0" stroke-width="0" fill="#66EA86" class="addr_row_member" id="data_addr_k1_17" />
<circle cx="413.5" cy="-76.5" r="9.0" stroke-width="0" fill="#DD4444" class="addr_row_member" id="data_addr_k1_18" />
<circle cx="435.5" cy="-76.5" r="9.0" stroke-width="0" fill="#DD4444" class="addr_row_member" id="data_addr_k1_19" />
<circle cx="457.5" cy="-76.5" r="9.0" stroke-width="0" fill="#DD4444" class="addr_row_member" id="data_addr_k1_20" />
<circle cx="479.5" cy="-76.5" r="9.0" stroke-width="0" fill="#DD4444" class="addr_row_member" id="data_addr_k1_21" />
<circle cx="501.5" cy="-76.5" r="9.0" stroke-width="0" fill="#DD4444" class="addr_row_member" id="data_addr_k1_22" />
<circle cx="523.5" cy="-76.5" r="9.0" stroke-width="0" fill="#DD4444" class="addr_row_member" id="data_addr_k1_23" />
<circle cx="545.5" cy="-76.5" r="9.0" stroke-width="0" fill="#66EA86" class="addr_row_member" id="data_addr_k1_24" />
<circle cx="567.5" cy="-76.5" r="9.0" stroke-width="0" fill="#66EA86" class="addr_row_member" id="data_addr_k1_25" />
<circle cx="589.5" cy="-76.5" r="9.0" stroke-width="0" fill="#DD4444" class="addr_row_member" id="data_addr_k1_26" />
<circle cx="611.5" cy="-76.5" r="9.0" stroke-width="0" fill="#DD4444" class="addr_row_member" id="data_addr_k1_27" />
<circle cx="633.5" cy="-76.5" r="9.0" stroke-width="0" fill="#DD4444" class="addr_row_member" id="data_addr_k1_28" />
<circle cx="655.5" cy="-76.5" r="9.0" stroke-width="0" fill="#DD4444" class="addr_row_member" id="data_addr_k1_29" />
<circle cx="677.5" cy="-76.5" r="9.0" stroke-width="0" fill="#DD4444" class="addr_row_member" id="data_addr_k1_30" />
<circle cx="699.5" cy="-76.5" r="9.0" stroke-width="0" fill="#DD4444" class="addr_row_member" id="data_addr_k1_31" />
<circle cx="17.5" cy="-46.5" r="9.0" stroke-width="0" fill="#66EA86" class="addr_row_member" id="data_addr_k2_0" />
<circle cx="39.5" cy="-46.5" r="9.0" stroke-width="0" fill="#66EA86" class="addr_row_member" id="data_addr_k2_1" />
<circle cx="61.5" cy="-46.5" r="9.0" stroke-width="0" fill="#66EA86" class="addr_row_member" id="data_addr_k2_2" />
<circle cx="83.5" cy="-46.5" r="9.0" stroke-width="0" fill="#66EA86" class="addr_row_member" id="data_addr_k2_3" />
<circle cx="105.5" cy="-46.5" r="9.0" stroke-width="0" fill="#66EA86" class="addr_row_member" id="data_addr_k2_4" />
<circle cx="127.5" cy="-46.5" r="9.0" stroke-width="0" fill="#66EA86" class="addr_row_member" id="data_addr_k2_5" />
<circle cx="149.5" cy="-46.5" r="9.0" stroke-width="0" fill="#66EA86" class="addr_row_member" id="data_addr_k2_6" />
<circle cx="171.5" cy="-46.5" r="9.0" stroke-width="0" fill="#66EA86" class="addr_row_member" id="data_addr_k2_7" />
<circle cx="193.5" cy="-46.5" r="9.0" stroke-width="0" fill="#66EA86" class="addr_row_member" id="data_addr_k2_8" />
<circle cx="215.5" cy="-46.5" r="9.0" stroke-width="0" fill="#66EA86" class="addr_row_member" id="data_addr_k2_9" />
<circle cx="237.5" cy="-46.5" r="9.0" stroke-width="0" fill="#66EA86" class="addr_row_member" id="data_addr_k2_10" />
<circle cx="259.5" cy="-46.5" r="9.0" stroke-width="0" fill="#66EA86" class="addr_row_member" id="data_addr_k2_11" />
<circle cx="281.5" cy="-46.5" r="9.0" stroke-width="0" fill="#66EA86" class="addr_row_member" id="data_addr_k2_12" />
<circle cx="303.5" cy="-46.5" r="9.0" stroke-width="0" fill="#66EA86" class="addr_row_member" id="data_addr_k2_13" />
<circle cx="325.5" cy="-46.5" r="9.0" stroke-width="0" fill="#66EA86" class="addr_row_member" id="data_addr_k2_14" />
<circle cx="347.5" cy="-46.5" r="9.0" stroke-width="0" fill="#66EA86" class="addr_row_member" id="data_addr_k2_15" />
<circle cx="369.5" cy="-46.5" r="9.0" stroke-width="0" fill="#66EA86" class="addr_row_member" id="data_addr_k2_16" />
<circle cx="391.5" cy="-46.5" r="9.0" stroke-width="0" fill="#66EA86" class="addr_row_member" id="data_addr_k2_17" />
<circle cx="413.5" cy="-46.5" r="9.0" stroke-width="0" fill="#66EA86" class="addr_row_member" id="data_addr_k2_18" />
<circle cx="435.5" cy="-46.5" r="9.0" stroke-width="0" fill="#66EA86" class="addr_row_member" id="data_addr_k2_19" />
<circle cx="457.5" cy="-46.5" r="9.0" stroke-width="0" fill="#DD4444" class="addr_row_member" id="data_addr_k2_20" />
<circle cx="479.5" cy="-46.5" r="9.0" stroke-width="0" fill="#DD4444" class="addr_row_member" id="data_addr_k2_21" />
<circle cx="501.5" cy="-46.5" r="9.0" stroke-width="0" fill="#DD4444" class="addr_row_member" id="data_addr_k2_22" />
<circle cx="523.5" cy="-46.5" r="9.0" stroke-width="0" fill="#DD4444" class="addr_row_member" id="data_addr_k2_23" />
<circle cx="545.5" cy="-46.5" r="9.0" stroke-width="0" fill="#66EA86" class="addr_row_member" id="data_addr_k2_24" />
<circle cx="567.5" cy="-46.5" r="9.0" stroke-width="0" fill="#66EA86" class="addr_row_member" id="data_addr_k2_25" />
<circle cx="589.5" cy="-46.5" r="9.0" stroke-width="0" fill="#66EA86" class="addr_row_member" id="data_addr_k2_26" />
<circle cx="611.5" cy="-46.5" r="9.0" stroke-width="0" fill="#66EA86" class="addr_row_member" id="data_addr_k2_27" />
<circle cx="633.5" cy="-46.5" r="9.0" stroke-width="0" fill="#DD4444" class="addr_row_member" id="data_addr_k2_28" />
<circle cx="655.5" cy="-46.5" r="9.0" stroke-width="0" fill="#DD4444" class="addr_row_member" id="data_addr_k2_29" />
<circle cx="677.5" cy="-46.5" r="9.0" stroke-width="0" fill="#DD4444" class="addr_row_member" id="data_addr_k2_30" />
<circle cx="699.5" cy="-46.5" r="9.0" stroke-width="0" fill="#DD4444" class="addr_row_member" id="data_addr_k2_31" />
<circle cx="17.5" cy="-16.5" r="9.0" stroke-width="0" fill="#66EA86" class="addr_row_member" id="data_addr_k3_0" />
<circle cx="39.5" cy="-16.5" r="9.0" stroke-width="0" fill="#66EA86" class="addr_row_member" id="data_addr_k3_1" />
<circle cx="61.5" cy="-16.5" r="9.0" stroke-width="0" fill="#66EA86" class="addr_row_member" id="data_addr_k3_2" />
<circle cx="83.5" cy="-16.5" r="9.0" stroke-width="0" fill="#66EA86" class="addr_row_member" id="data_addr_k3_3" />
<circle cx="105.5" cy="-16.5" r="9.0" stroke-width="0" fill="#66EA86" class="addr_row_member" id="data_addr_k3_4" />
<circle cx="127.5" cy="-16.5" r="9.0" stroke-width="0" fill="#66EA86" class="addr_row_member" id="data_addr_k3_5" />
<circle cx="149.5" cy="-16.5" r="9.0" stroke-width="0" fill="#66EA86" class="addr_row_member" id="data_addr_k3_6" />
<circle cx="171.5" cy="-16.5" r="9.0" stroke-width="0" fill="#66EA86" class="addr_row_member" id="data_addr_k3_7" />
<circle cx="193.5" cy="-16.5" r="9.0" stroke-width="0" fill="#66EA86" class="addr_row_member" id="data_addr_k3_8" />
<circle cx="215.5" cy="-16.5" r="9.0" stroke-width="0" fill="#66EA86" class="addr_row_member" id="data_addr_k3_9" />
<circle cx="237.5" cy="-16.5" r="9.0" stroke-width="0" fill="#66EA86" class="addr_row_member" id="data_addr_k3_10" />
<circle cx="259.5" cy="-16.5" r="9.0" stroke-width="0" fill="#66EA86" class="addr_row_member" id="data_addr_k3_11" />
<circle cx="281.5" cy="-16.5" r="9.0" stroke-width="0" fill="#66EA86" class="addr_row_member" id="data_addr_k3_12" />
<circle cx="303.5" cy="-16.5" r="9.0" stroke-width="0" fill="#66EA86" class="addr_row_member" id="data_addr_k3_13" />
<circle cx="325.5" cy="-16.5" r="9.0" stroke-width="0" fill="#66EA86" class="addr_row_member" id="data_addr_k3_14" />
<circle cx="347.5" cy="-16.5" r="9.0" stroke-width="0" fill="#66EA86" class="addr_row_member" id="data_addr_k3_15" />
<circle cx="369.5" cy="-16.5" r="9.0" stroke-width="0" fill="#66EA86" class="addr_row_member" id="data_addr_k3_16" />
<circle cx="391.5" cy="-16.5" r="9.0" stroke-width="0" fill="#66EA86" class="addr_row_member" id="data_addr_k3_17" />
<circle cx="413.5" cy="-16.5" r="9.0" stroke-width="0" fill="#66EA86" class="addr_row_member" id="data_addr_k3_18" />
<circle cx="435.5" cy="-16.5" r="9.0" stroke-width="0" fill="#66EA86" class="addr_row_member" id="data_addr_k3_19" />
<circle cx="457.5" cy="-16.5" r="9.0" stroke-width="0" fill="#66EA86" class="addr_row_member" id="data_addr_k3_20" />
<circle cx="479.5" cy="-16.5" r="9.0" stroke-width="0" fill="#66EA86" class="addr_row_member" id="data_addr_k3_21" />
<circle cx="501.5" cy="-16.5" r="9.0" stroke-width="0" fill="#DD4444" class="addr_row_member" id="data_addr_k3_22" />
<circle cx="523.5" cy="-16.5" r="9.0" stroke-width="0" fill="#DD4444" class="addr_row_member" id="data_addr_k3_23" />
<circle cx="545.5" cy="-16.5" r="9.0" stroke-width="0" fill="#66EA86" class="addr_row_member" id="data_addr_k3_24" />
<circle cx="567.5" cy="-16.5" r="9.0" stroke-width="0" fill="#66EA86" class="addr_row_member" id="data_addr_k3_25" />
<circle cx="589.5" cy="-16.5" r="9.0" stroke-width="0" fill="#66EA86" class="addr_row_member" id="data_addr_k3_26" />
<circle cx="611.5" cy="-16.5" r="9.0" stroke-width="0" fill="#66EA86" class="addr_row_member" id="data_addr_k3_27" />
<circle cx="633.5" cy="-16.5" r="9.0" stroke-width="0" fill="#66EA86" class="addr_row_member" id="data_addr_k3_28" />
<circle cx="655.5" cy="-16.5" r="9.0" stroke-width="0" fill="#66EA86" class="addr_row_member" id="data_addr_k3_29" />
<circle cx="677.5" cy="-16.5" r="9.0" stroke-width="0" fill="#DD4444" class="addr_row_member" id="data_addr_k3_30" />
<circle cx="699.5" cy="-16.5" r="9.0" stroke-width="0" fill="#DD4444" class="addr_row_member" id="data_addr_k3_31" />
<path d="M1.5,-91.5 L759.5,-91.5" stroke="#000000" stroke-width="1" stroke-dasharray="3 2" />
<path d="M1.5,-61.5 L759.5,-61.5" stroke="#000000" stroke-width="1" stroke-dasharray="3 2" />
<path d="M1.5,-31.5 L759.5,-31.5" stroke="#000000" stroke-width="1" stroke-dasharray="3 2" />
<path d="M1.5,-1.5 L759.5,-1.5" stroke="#000000" stroke-width="1" stroke-dasharray="3 2" />
<path d="M715.5,-91.5 L715.5,-1.5" stroke="#000000" stroke-width="1" stroke-dasharray="3 2" />
<text x="737.5" y="-78.5" font-size="12.0" fill="#000000" text-anchor="middle" transform="translate(0,6.0)">k = 1</text>
<text x="737.5" y="-48.5" font-size="12.0" fill="#000000" text-anchor="middle" transform="translate(0,6.0)">k = 2</text>
<text x="737.5" y="-18.5" font-size="12.0" fill="#000000" text-anchor="middle" transform="translate(0,6.0)">k = 3</text>
<circle cx="17.5" cy="-106.5" r="9.0" stroke="#000000" stroke-width="0.8" fill="#FFFFFF" id="tree_leaf_0" />
<circle cx="39.5" cy="-106.5" r="9.0" stroke="#000000" stroke-width="0.8" fill="#66EA86" id="tree_leaf_1" />
<path d="M17.5,-115.5 L28.5,-145.5" stroke="#000000" stroke-width="1.5" />
<path d="M39.5,-115.5 L28.5,-145.5" stroke="#000000" stroke-width="1.5" />
<text x="18.0" y="-136.5" font-size="9.0" fill="#000000" text-anchor="middle" transform="translate(0,4.5)">0</text>
<text x="39.0" y="-136.5" font-size="9.0" fill="#000000" text-anchor="middle" transform="translate(0,4.5)">1</text>
<circle cx="61.5" cy="-106.5" r="9.0" stroke="#000000" stroke-width="0.8" fill="#FFFFFF" id="tree_leaf_2" />
<circle cx="83.5" cy="-106.5" r="9.0" stroke="#000000" stroke-width="0.8" fill="#FFFFFF" id="tree_leaf_3" />
<path d="M61.5,-115.5 L72.5,-145.5" stroke="#000000" stroke-width="1.5" />
<path d="M83.5,-115.5 L72.5,-145.5" stroke="#000000" stroke-width="1.5" />
<text x="62.0" y="-136.5" font-size="9.0" fill="#000000" text-anchor="middle" transform="translate(0,4.5)">0</text>
<text x="83.0" y="-136.5" font-size="9.0" fill="#000000" text-anchor="middle" transform="translate(0,4.5)">1</text>
<path d="M28.5,-145.5 L50.5,-175.5" stroke="#000000" stroke-width="1.5" />
<path d="M72.5,-145.5 L50.5,-175.5" stroke="#000000" stroke-width="1.5" />
<text x="34.5" y="-166.5" font-size="9.0" fill="#000000" text-anchor="middle" transform="translate(0,4.5)">0</text>
<text x="66.5" y="-166.5" font-size="9.0" fill="#000000" text-anchor="middle" transform="translate(0,4.5)">1</text>
<circle cx="105.5" cy="-106.5" r="9.0" stroke="#000000" stroke-width="0.8" fill="#FFFFFF" id="tree_leaf_4" />
<circle cx="127.5" cy="-106.5" r="9.0" stroke="#000000" stroke-width="0.8" fill="#FFFFFF" id="tree_leaf_5" />
<path d="M105.5,-115.5 L116.5,-145.5" stroke="#000000" stroke-width="1.5" />
<path d="M127.5,-115.5 L116.5,-145.5" stroke="#000000" stroke-width="1.5" />
<text x="106.0" y="-136.5" font-size="9.0" fill="#000000" text-anchor="middle" transform="translate(0,4.5)">0</text>
<text x="127.0" y="-136.5" font-size="9.0" fill="#000000" text-anchor="middle" transform="translate(0,4.5)">1</text>
<circle cx="149.5" cy="-106.5" r="9.0" stroke="#000000" stroke-width="0.8" fill="#DD4444" id="tree_leaf_6" />
<circle cx="171.5" cy="-106.5" r="9.0" stroke="#000000" stroke-width="0.8" fill="#FFFFFF" id="tree_leaf_7" />
<path d="M149.5,-115.5 L160.5,-145.5" stroke="#000000" stroke-width="1.5" />
<path d="M171.5,-115.5 L160.5,-145.5" stroke="#000000" stroke-width="1.5" />
<text x="150.0" y="-136.5" font-size="9.0" fill="#000000" text-anchor="middle" transform="translate(0,4.5)">0</text>
<text x="171.0" y="-136.5" font-size="9.0" fill="#000000" text-anchor="middle" transform="translate(0,4.5)">1</text>
<path d="M116.5,-145.5 L138.5,-175.5" stroke="#000000" stroke-width="1.5" />
<path d="M160.5,-145.5 L138.5,-175.5" stroke="#000000" stroke-width="1.5" />
<text x="122.5" y="-166.5" font-size="9.0" fill="#000000" text-anchor="middle" transform="translate(0,4.5)">0</text>
<text x="154.5" y="-166.5" font-size="9.0" fill="#000000" text-anchor="middle" transform="translate(0,4.5)">1</text>
<path d="M50.5,-175.5 L94.5,-205.5" stroke="#000000" stroke-width="1.5" />
<path d="M138.5,-175.5 L94.5,-205.5" stroke="#000000" stroke-width="1.5" />
<text x="67.5" y="-196.5" font-size="9.0" fill="#000000" text-anchor="middle" transform="translate(0,4.5)">0</text>
<text x="121.5" y="-196.5" font-size="9.0" fill="#000000" text-anchor="middle" transform="translate(0,4.5)">1</text>
<circle cx="193.5" cy="-106.5" r="9.0" stroke="#000000" stroke-width="0.8" fill="#FFFFFF" id="tree_leaf_8" />
<circle cx="215.5" cy="-106.5" r="9.0" stroke="#000000" stroke-width="0.8" fill="#66EA86" id="tree_leaf_9" />
<path d="M193.5,-115.5 L204.5,-145.5" stroke="#000000" stroke-width="1.5" />
<path d="M215.5,-115.5 L204.5,-145.5" stroke="#000000" stroke-width="1.5" />
<text x="194.0" y="-136.5" font-size="9.0" fill="#000000" text-anchor="middle" transform="translate(0,4.5)">0</text>
<text x="215.0" y="-136.5" font-size="9.0" fill="#000000" text-anchor="middle" transform="translate(0,4.5)">1</text>
<circle cx="237.5" cy="-106.5" r="9.0" stroke="#000000" stroke-width="0.8" fill="#66EA86" id="tree_leaf_10" />
<circle cx="259.5" cy="-106.5" r="9.0" stroke="#000000" stroke-width="0.8" fill="#FFFFFF" id="tree_leaf_11" />
<path d="M237.5,-115.5 L248.5,-145.5" stroke="#000000" stroke-width="1.5" />
<path d="M259.5,-115.5 L248.5,-145.5" stroke="#000000" stroke-width="1.5" />
<text x="238.0" y="-136.5" font-size="9.0" fill="#000000" text-anchor="middle" transform="translate(0,4.5)">0</text>
<text x="259.0" y="-136.5" font-size="9.0" fill="#000000" text-anchor="middle" transform="translate(0,4.5)">1</text>
<path d="M204.5,-145.5 L226.5,-175.5" stroke="#000000" stroke-width="1.5" />
<path d="M248.5,-145.5 L226.5,-175.5" stroke="#000000" stroke-width="1.5" />
<text x="210.5" y="-166.5" font-size="9.0" fill="#000000" text-anchor="middle" transform="translate(0,4.5)">0</text>
<text x="242.5" y="-166.5" font-size="9.0" fill="#000000" text-anchor="middle" transform="translate(0,4.5)">1</text>
<circle cx="281.5" cy="-106.5" r="9.0" stroke="#000000" stroke-width="0.8" fill="#FFFFFF" id="tree_leaf_12" />
<circle cx="303.5" cy="-106.5" r="9.0" stroke="#000000" stroke-width="0.8" fill="#DD4444" id="tree_leaf_13" />
<path d="M281.5,-115.5 L292.5,-145.5" stroke="#000000" stroke-width="1.5" />
<path d="M303.5,-115.5 L292.5,-145.5" stroke="#000000" stroke-width="1.5" />
<text x="282.0" y="-136.5" font-size="9.0" fill="#000000" text-anchor="middle" transform="translate(0,4.5)">0</text>
<text x="303.0" y="-136.5" font-size="9.0" fill="#000000" text-anchor="middle" transform="translate(0,4.5)">1</text>
<circle cx="325.5" cy="-106.5" r="9.0" stroke="#000000" stroke-width="0.8" fill="#FFFFFF" id="tree_leaf_14" />
<circle cx="347.5" cy="-106.5" r="9.0" stroke="#000000" stroke-width="0.8" fill="#66EA86" id="tree_leaf_15" />
<path d="M325.5,-115.5 L336.5,-145.5" stroke="#000000" stroke-width="1.5" />
<path d="M347.5,-115.5 L336.5,-145.5" stroke="#000000" stroke-width="1.5" />
<text x="326.0" y="-136.5" font-size="9.0" fill="#000000" text-anchor="middle" transform="translate(0,4.5)">0</text>
<text x="347.0" y="-136.5" font-size="9.0" fill="#000000" text-anchor="middle" transform="translate(0,4.5)">1</text>
<path d="M292.5,-145.5 L314.5,-175.5" stroke="#000000" stroke-width="1.5" />
<path d="M336.5,-145.5 L314.5,-175.5" stroke="#000000" stroke-width="1.5" />
<text x="298.5" y="-166.5" font-size="9.0" fill="#000000" text-anchor="middle" transform="translate(0,4.5)">0</text>
<text x="330.5" y="-166.5" font-size="9.0" fill="#000000" text-anchor="middle" transform="translate(0,4.5)">1</text>
<path d="M226.5,-175.5 L270.5,-205.5" stroke="#000000" stroke-width="1.5" />
<path d="M314.5,-175.5 L270.5,-205.5" stroke="#000000" stroke-width="1.5" />
<text x="243.5" y="-196.5" font-size="9.0" fill="#000000" text-anchor="middle" transform="translate(0,4.5)">0</text>
<text x="297.5" y="-196.5" font-size="9.0" fill="#000000" text-anchor="middle" transform="translate(0,4.5)">1</text>
<path d="M94.5,-205.5 L182.5,-235.5" stroke="#000000" stroke-width="1.5" />
<path d="M270.5,-205.5 L182.5,-235.5" stroke="#000000" stroke-width="1.5" />
<text x="133.5" y="-226.5" font-size="9.0" fill="#000000" text-anchor="middle" transform="translate(0,4.5)">0</text>
<text x="231.5" y="-226.5" font-size="9.0" fill="#000000" text-anchor="middle" transform="translate(0,4.5)">1</text>
<circle cx="369.5" cy="-106.5" r="9.0" stroke="#000000" stroke-width="0.8" fill="#FFFFFF" id="tree_leaf_16" />
<circle cx="391.5" cy="-106.5" r="9.0" stroke="#000000" stroke-width="0.8" fill="#66EA86" id="tree_leaf_17" />
<path d="M369.5,-115.5 L380.5,-145.5" stroke="#000000" stroke-width="1.5" />
<path d="M391.5,-115.5 L380.5,-145.5" stroke="#000000" stroke-width="1.5" />
<text x="370.0" y="-136.5" font-size="9.0" fill="#000000" text-anchor="middle" transform="translate(0,4.5)">0</text>
<text x="391.0" y="-136.5" font-size="9.0" fill="#000000" text-anchor="middle" transform="translate(0,4.5)">1</text>
<circle cx="413.5" cy="-106.5" r="9.0" stroke="#000000" stroke-width="0.8" fill="#DD4444" id="tree_leaf_18" />
<circle cx="435.5" cy="-106.5" r="9.0" stroke="#000000" stroke-width="0.8" fill="#FFFFFF" id="tree_leaf_19" />
<path d="M413.5,-115.5 L424.5,-145.5" stroke="#000000" stroke-width="1.5" />
<path d="M435.5,-115.5 L424.5,-145.5" stroke="#000000" stroke-width="1.5" />
<text x="414.0" y="-136.5" font-size="9.0" fill="#000000" text-anchor="middle" transform="translate(0,4.5)">0</text>
<text x="435.0" y="-136.5" font-size="9.0" fill="#000000" text-anchor="middle" transform="translate(0,4.5)">1</text>
<path d="M380.5,-145.5 L402.5,-175.5" stroke="#000000" stroke-width="1.5" />
<path d="M424.5,-145.5 L402.5,-175.5" stroke="#000000" stroke-width="1.5" />
<text x="386.5" y="-166.5" font-size="9.0" fill="#000000" text-anchor="middle" transform="translate(0,4.5)">0</text>
<text x="418.5" y="-166.5" font-size="9.0" fill="#000000" text-anchor="middle" transform="translate(0,4.5)">1</text>
<circle cx="457.5" cy="-106.5" r="9.0" stroke="#000000" stroke-width="0.8" fill="#DD4444" id="tree_leaf_20" />
<circle cx="479.5" cy="-106.5" r="9.0" stroke="#000000" stroke-width="0.8" fill="#FFFFFF" id="tree_leaf_21" />
<path d="M457.5,-115.5 L468.5,-145.5" stroke="#000000" stroke-width="1.5" />
<path d="M479.5,-115.5 L468.5,-145.5" stroke="#000000" stroke-width="1.5" />
<text x="458.0" y="-136.5" font-size="9.0" fill="#000000" text-anchor="middle" transform="translate(0,4.5)">0</text>
<text x="479.0" y="-136.5" font-size="9.0" fill="#000000" text-anchor="middle" transform="translate(0,4.5)">1</text>
<circle cx="501.5" cy="-106.5" r="9.0" stroke="#000000" stroke-width="0.8" fill="#FFFFFF" id="tree_leaf_22" />
<circle cx="523.5" cy="-106.5" r="9.0" stroke="#000000" stroke-width="0.8" fill="#DD4444" id="tree_leaf_23" />
<path d="M501.5,-115.5 L512.5,-145.5" stroke="#000000" stroke-width="1.5" />
<path d="M523.5,-115.5 L512.5,-145.5" stroke="#000000" stroke-width="1.5" />
<text x="502.0" y="-136.5" font-size="9.0" fill="#000000" text-anchor="middle" transform="translate(0,4.5)">0</text>
<text x="523.0" y="-136.5" font-size="9.0" fill="#000000" text-anchor="middle" transform="translate(0,4.5)">1</text>
<path d="M468.5,-145.5 L490.5,-175.5" stroke="#000000" stroke-width="1.5" />
<path d="M512.5,-145.5 L490.5,-175.5" stroke="#000000" stroke-width="1.5" />
<text x="474.5" y="-166.5" font-size="9.0" fill="#000000" text-anchor="middle" transform="translate(0,4.5)">0</text>
<text x="506.5" y="-166.5" font-size="9.0" fill="#000000" text-anchor="middle" transform="translate(0,4.5)">1</text>
<path d="M402.5,-175.5 L446.5,-205.5" stroke="#000000" stroke-width="1.5" />
<path d="M490.5,-175.5 L446.5,-205.5" stroke="#000000" stroke-width="1.5" />
<text x="419.5" y="-196.5" font-size="9.0" fill="#000000" text-anchor="middle" transform="translate(0,4.5)">0</text>
<text x="473.5" y="-196.5" font-size="9.0" fill="#000000" text-anchor="middle" transform="translate(0,4.5)">1</text>
<circle cx="545.5" cy="-106.5" r="9.0" stroke="#000000" stroke-width="0.8" fill="#FFFFFF" id="tree_leaf_24" />
<circle cx="567.5" cy="-106.5" r="9.0" stroke="#000000" stroke-width="0.8" fill="#FFFFFF" id="tree_leaf_25" />
<path d="M545.5,-115.5 L556.5,-145.5" stroke="#000000" stroke-width="1.5" />
<path d="M567.5,-115.5 L556.5,-145.5" stroke="#000000" stroke-width="1.5" />
<text x="546.0" y="-136.5" font-size="9.0" fill="#000000" text-anchor="middle" transform="translate(0,4.5)">0</text>
<text x="567.0" y="-136.5" font-size="9.0" fill="#000000" text-anchor="middle" transform="translate(0,4.5)">1</text>
<circle cx="589.5" cy="-106.5" r="9.0" stroke="#000000" stroke-width="0.8" fill="#FFFFFF" id="tree_leaf_26" />
<circle cx="611.5" cy="-106.5" r="9.0" stroke="#000000" stroke-width="0.8" fill="#FFFFFF" id="tree_leaf_27" />
<path d="M589.5,-115.5 L600.5,-145.5" stroke="#000000" stroke-width="1.5" />
<path d="M611.5,-115.5 L600.5,-145.5" stroke="#000000" stroke-width="1.5" />
<text x="590.0" y="-136.5" font-size="9.0" fill="#000000" text-anchor="middle" transform="translate(0,4.5)">0</text>
<text x="611.0" y="-136.5" font-size="9.0" fill="#000000" text-anchor="middle" transform="translate(0,4.5)">1</text>
<path d="M556.5,-145.5 L578.5,-175.5" stroke="#000000" stroke-width="1.5" />
<path d="M600.5,-145.5 L578.5,-175.5" stroke="#000000" stroke-width="1.5" />
<text x="562.5" y="-166.5" font-size="9.0" fill="#000000" text-anchor="middle" transform="translate(0,4.5)">0</text>
<text x="594.5" y="-166.5" font-size="9.0" fill="#000000" text-anchor="middle" transform="translate(0,4.5)">1</text>
<circle cx="633.5" cy="-106.5" r="9.0" stroke="#000000" stroke-width="0.8" fill="#FFFFFF" id="tree_leaf_28" />
<circle cx="655.5" cy="-106.5" r="9.0" stroke="#000000" stroke-width="0.8" fill="#FFFFFF" id="tree_leaf_29" />
<path d="M633.5,-115.5 L644.5,-145.5" stroke="#000000" stroke-width="1.5" />
<path d="M655.5,-115.5 L644.5,-145.5" stroke="#000000" stroke-width="1.5" />
<text x="634.0" y="-136.5" font-size="9.0" fill="#000000" text-anchor="middle" transform="translate(0,4.5)">0</text>
<text x="655.0" y="-136.5" font-size="9.0" fill="#000000" text-anchor="middle" transform="translate(0,4.5)">1</text>
<circle cx="677.5" cy="-106.5" r="9.0" stroke="#000000" stroke-width="0.8" fill="#FFFFFF" id="tree_leaf_30" />
<circle cx="699.5" cy="-106.5" r="9.0" stroke="#000000" stroke-width="0.8" fill="#FFFFFF" id="tree_leaf_31" />
<path d="M677.5,-115.5 L688.5,-145.5" stroke="#000000" stroke-width="1.5" />
<path d="M699.5,-115.5 L688.5,-145.5" stroke="#000000" stroke-width="1.5" />
<text x="678.0" y="-136.5" font-size="9.0" fill="#000000" text-anchor="middle" transform="translate(0,4.5)">0</text>
<text x="699.0" y="-136.5" font-size="9.0" fill="#000000" text-anchor="middle" transform="translate(0,4.5)">1</text>
<path d="M644.5,-145.5 L666.5,-175.5" stroke="#000000" stroke-width="1.5" />
<path d="M688.5,-145.5 L666.5,-175.5" stroke="#000000" stroke-width="1.5" />
<text x="650.5" y="-166.5" font-size="9.0" fill="#000000" text-anchor="middle" transform="translate(0,4.5)">0</text>
<text x="682.5" y="-166.5" font-size="9.0" fill="#000000" text-anchor="middle" transform="translate(0,4.5)">1</text>
<path d="M578.5,-175.5 L622.5,-205.5" stroke="#000000" stroke-width="1.5" />
<path d="M666.5,-175.5 L622.5,-205.5" stroke="#000000" stroke-width="1.5" />
<text x="595.5" y="-196.5" font-size="9.0" fill="#000000" text-anchor="middle" transform="translate(0,4.5)">0</text>
<text x="649.5" y="-196.5" font-size="9.0" fill="#000000" text-anchor="middle" transform="translate(0,4.5)">1</text>
<path d="M446.5,-205.5 L534.5,-235.5" stroke="#000000" stroke-width="1.5" />
<path d="M622.5,-205.5 L534.5,-235.5" stroke="#000000" stroke-width="1.5" />
<text x="485.5" y="-226.5" font-size="9.0" fill="#000000" text-anchor="middle" transform="translate(0,4.5)">0</text>
<text x="583.5" y="-226.5" font-size="9.0" fill="#000000" text-anchor="middle" transform="translate(0,4.5)">1</text>
<path d="M182.5,-235.5 L358.5,-265.5" stroke="#000000" stroke-width="1.5" />
<path d="M534.5,-235.5 L358.5,-265.5" stroke="#000000" stroke-width="1.5" />
<text x="265.5" y="-256.5" font-size="9.0" fill="#000000" text-anchor="middle" transform="translate(0,4.5)">0</text>
<text x="451.5" y="-256.5" font-size="9.0" fill="#000000" text-anchor="middle" transform="translate(0,4.5)">1</text>
</svg>